<?xml version="1.0" encoding="UTF-8" standalone="no"?>
<!-- Uploaded to: SVG Repo, www.svgrepo.com, Generator: SVG Repo Mixer Tools -->

<svg
   fill="#ffffff"
   height="800px"
   width="800px"
   version="1.1"
   id="Capa_1"
   viewBox="0 0 478.439 478.439"
   xml:space="preserve"
   sodipodi:docname="421.svg"
   inkscape:version="1.4.2 (f4327f4, 2025-05-13)"
   xmlns:inkscape="http://www.inkscape.org/namespaces/inkscape"
   xmlns:sodipodi="http://sodipodi.sourceforge.net/DTD/sodipodi-0.dtd"
   xmlns="http://www.w3.org/2000/svg"
   xmlns:svg="http://www.w3.org/2000/svg"><defs
   id="defs5" /><sodipodi:namedview
   id="namedview5"
   pagecolor="#ffffff"
   bordercolor="#ffffff"
   borderopacity="0.25"
   inkscape:showpageshadow="2"
   inkscape:pageopacity="0.0"
   inkscape:pagecheckerboard="0"
   inkscape:deskcolor="#d1d1d1"
   inkscape:zoom="0.83703765"
   inkscape:cx="402.01298"
   inkscape:cy="399.6236"
   inkscape:window-width="1920"
   inkscape:window-height="1009"
   inkscape:window-x="-8"
   inkscape:window-y="-8"
   inkscape:window-maximized="1"
   inkscape:current-layer="g7" />
<g
   id="g7"
   transform="translate(0,-29.902431)"
   style="fill:#ffffff;fill-opacity:1"><path
     d="M 444.86222,70.612016 H 234.16981 c -26.2927,0 -47.68663,21.396076 -47.68663,47.686674 l 0,114.74686 h 34.16593 l 0,-114.74686 c 0,-7.45706 6.06474,-13.52074 13.5207,-13.52074 h 210.69134 c 7.45703,0 13.5207,6.06476 13.5207,13.52074 v 210.69245 c 0,7.45811 -6.06474,13.52071 -13.5207,13.52071 H 311.04316 v 34.16593 h 133.81906 c 26.29271,0 47.68664,-21.39501 47.68664,-47.68664 V 118.29869 c 0,-26.290598 -21.39501,-47.686674 -47.68664,-47.686674 z"
     id="path1"
     style="fill:#ffffff;fill-opacity:1;stroke-width:1.07265"
     transform="matrix(0.74845107,0,0,0.74845107,110.78203,84.627935)"
     sodipodi:nodetypes="sssccssssssccssss" /><path
     d="m 341.96846,200.87016 c 0,-12.94794 -10.4945,-23.43765 -23.44244,-23.43765 -12.94151,0 -23.43601,10.48971 -23.43601,23.43765 0,12.94714 10.4945,23.43603 23.43601,23.43603 12.94794,0 23.44244,-10.48889 23.44244,-23.43603 z"
     id="path3"
     style="fill:#ffffff;fill-opacity:1;stroke-width:0.802826" /><path
     d="m 439.37401,297.42859 c 0,-12.94794 -10.49451,-23.43764 -23.44244,-23.43764 -12.94152,0 -23.43602,10.4897 -23.43602,23.43764 0,12.94714 10.4945,23.43603 23.43602,23.43603 12.94793,0 23.44244,-10.48889 23.44244,-23.43603 z"
     id="path3-9"
     style="fill:#ffffff;fill-opacity:1;stroke-width:0.802826" /></g><path
   d="M 193.7067,-0.5131932 H 36.013746 c -19.678,0 -35.6911181,16.0131082 -35.6911181,35.6911082 V 192.87007 c 0,19.6788 16.0131181,35.6911 35.6911181,35.6911 H 193.7067 c 19.67881,0 35.69112,-16.01311 35.69112,-35.6911 V 35.177915 c 0,-19.678 -16.01311,-35.6911082 -35.69112,-35.6911082 z M 203.82629,192.87087 c 0,5.58122 -4.53916,10.11958 -10.11959,10.11958 H 36.013746 c -5.58123,0 -10.11959,-4.53916 -10.11959,-10.11958 V 35.177915 c 0,-5.58123 4.53916,-10.11959 10.11959,-10.11959 H 193.7067 c 5.58123,0 10.11959,4.53917 10.11959,10.11959 z"
   id="path4-9"
   style="fill:#ffffff;fill-opacity:1;stroke-width:0.802826" /><g
   id="g6"
   transform="translate(0,-31.098528)"
   style="fill:#ffffff;fill-opacity:1"><path
     d="m 65.020616,71.938616 c -12.947935,0 -23.437622,10.494503 -23.437622,23.442438 0,12.941526 10.48969,23.436076 23.437622,23.436076 12.947132,0 23.436024,-10.49455 23.436024,-23.436076 0,-12.947935 -10.488892,-23.442436 -23.436024,-23.442438 z"
     id="path3-8"
     style="fill:#ffffff;fill-opacity:1;stroke-width:0.802823" /><path
     d="m 89.293789,194.31403 c 0,-12.94793 -10.48969,-23.44244 -23.43601,-23.44244 -12.94794,0 -23.437647,10.49451 -23.437647,23.44244 0,12.94151 10.489707,23.43601 23.437647,23.43601 12.94713,8.1e-4 23.43601,-10.49369 23.43601,-23.43601 z"
     id="path2-4"
     style="fill:#ffffff;fill-opacity:1;stroke-width:0.802823" /><path
     d="m 162.18487,71.765841 c -12.94794,0 -23.43763,10.494503 -23.43763,23.442439 0,12.94151 10.48969,23.43606 23.43763,23.43606 12.94713,0 23.43602,-10.49455 23.43602,-23.43606 0,-12.947935 -10.48889,-23.442437 -23.43602,-23.442439 z"
     id="path3-8-2"
     style="fill:#ffffff;fill-opacity:1;stroke-width:0.802823" /><path
     d="m 186.45804,194.14124 c 0,-12.94793 -10.48969,-23.44244 -23.43601,-23.44244 -12.94794,0 -23.43765,10.49451 -23.43765,23.44244 0,12.94151 10.48971,23.43601 23.43765,23.43601 12.94713,8.1e-4 23.43601,-10.49369 23.43601,-23.43601 z"
     id="path2-4-4"
     style="fill:#ffffff;fill-opacity:1;stroke-width:0.802823" /></g><g
   id="g5"
   style="fill:#ffffff;fill-opacity:1"
   transform="matrix(0.74845105,0,0,0.74845105,110.78203,84.627937)">
	
	
	
	<path
   d="M 237.73207,219.05348 H 27.039669 c -26.29163342,0 -47.686637,21.395 -47.686637,47.68663 v 210.69134 c 0,26.2927 21.39500358,47.68663 47.686637,47.68663 H 237.73207 c 26.29271,0 47.68664,-21.395 47.68664,-47.68663 V 266.74011 c 0,-26.29163 -21.395,-47.68663 -47.68664,-47.68663 z m 13.52071,258.37904 c 0,7.45703 -6.06474,13.5207 -13.52071,13.5207 H 27.039669 c -7.457037,0 -13.520706,-6.06474 -13.520706,-13.5207 V 266.74011 c 0,-7.45704 6.064742,-13.5207 13.520706,-13.5207 H 237.73207 c 7.45704,0 13.52071,6.06474 13.52071,13.5207 z"
   id="path4"
   style="fill:#ffffff;fill-opacity:1;stroke-width:1.07265" />
	<path
   d="m 132.38212,340.7688 c -17.29106,0 -31.31269,14.01305 -31.31269,31.31269 0,17.29964 14.02163,31.31269 31.31269,31.31269 17.29964,0 31.32127,-14.01305 31.32127,-31.31269 0,-17.29964 -14.02163,-31.31269 -31.32127,-31.31269 z"
   id="path5"
   style="fill:#ffffff;fill-opacity:1;stroke-width:1.07265" />
</g>
</svg>
