<?xml version="1.0" encoding="UTF-8" standalone="no"?>
<!-- Uploaded to: SVG Repo, www.svgrepo.com, Transformed by: SVG Repo Mixer Tools -->

<svg
   fill="#ffffff"
   height="800px"
   width="800px"
   version="1.1"
   id="Layer_1"
   viewBox="0 0 512 512"
   xml:space="preserve"
   sodipodi:docname="8-americain.svg"
   inkscape:version="1.4.2 (f4327f4, 2025-05-13)"
   xmlns:inkscape="http://www.inkscape.org/namespaces/inkscape"
   xmlns:sodipodi="http://sodipodi.sourceforge.net/DTD/sodipodi-0.dtd"
   xmlns="http://www.w3.org/2000/svg"
   xmlns:svg="http://www.w3.org/2000/svg"><defs
   id="defs4" /><sodipodi:namedview
   id="namedview4"
   pagecolor="#ffffff"
   bordercolor="#000000"
   borderopacity="0.25"
   inkscape:showpageshadow="2"
   inkscape:pageopacity="0.0"
   inkscape:pagecheckerboard="0"
   inkscape:deskcolor="#d1d1d1"
   inkscape:zoom="0.504375"
   inkscape:cx="159.60347"
   inkscape:cy="496.65427"
   inkscape:window-width="1920"
   inkscape:window-height="1009"
   inkscape:window-x="-8"
   inkscape:window-y="-8"
   inkscape:window-maximized="1"
   inkscape:current-layer="Layer_1" />





<g
   id="SVGRepo_iconCarrier"> <g
   id="g4"> <g
   id="g3"> <g
   id="g2">   <path
   id="path2"
   d="M 93.8675 0 C 79.7535 0 68.2675 11.477 68.2675 25.6 L 68.2675 486.4 C 68.2675 500.514 79.7535 512 93.8675 512 L 418.13375 512 C 432.24775 512 443.73375 500.514 443.73375 486.4 L 443.73375 25.6 C 443.73275 11.477 432.2475 0 418.1325 0 L 93.8675 0 z M 204.8 34.1325 L 401.0675 34.1325 C 405.7865 34.1325 409.6 37.94725 409.6 42.66625 L 409.6 332.8 C 409.6 337.51 405.7865 341.3325 401.0675 341.3325 C 396.3485 341.3325 392.53375 337.51 392.53375 332.8 L 392.53375 51.2 L 204.8 51.2 C 200.081 51.2 196.2675 47.3775 196.2675 42.6675 C 196.2675 37.9485 200.081 34.1325 204.8 34.1325 z M 145.02125 35.1425 C 154.42625 35.1425 161.71625 37.55 166.89125 42.365 C 172.11125 47.18 174.72125 53.2775 174.72125 60.6575 C 174.72125 65.2475 173.52875 69.3425 171.14375 72.9425 C 168.75875 76.4975 165.40625 79.22 161.08625 81.11 C 166.57625 83.315 170.73875 86.5325 173.57375 90.7625 C 176.45375 94.9925 177.89375 99.875 177.89375 105.41 C 177.89375 114.545 174.96875 121.97 169.11875 127.685 C 163.31375 133.4 155.57375 136.2575 145.89875 136.2575 C 136.89875 136.2575 129.40625 133.895 123.42125 129.17 C 116.35625 123.59 112.82375 115.94 112.82375 106.22 C 112.82375 100.865 114.15125 95.96 116.80625 91.505 C 119.46125 87.005 123.64625 83.54 129.36125 81.11 C 124.45625 79.04 120.87875 76.205 118.62875 72.605 C 116.42375 68.96 115.32125 64.9775 115.32125 60.6575 C 115.32125 53.2775 117.88625 47.18 123.01625 42.365 C 128.19125 37.55 135.52625 35.1425 145.02125 35.1425 z M 145.22375 50.195 C 141.57875 50.195 138.67625 51.275 136.51625 53.435 C 134.35625 55.595 133.27625 58.4525 133.27625 62.0075 C 133.27625 65.7875 134.33375 68.735 136.44875 70.85 C 138.60875 72.965 141.46625 74.0225 145.02125 74.0225 C 148.62125 74.0225 151.50125 72.965 153.66125 70.85 C 155.82125 68.69 156.90125 65.72 156.90125 61.94 C 156.90125 58.385 155.82125 55.55 153.66125 53.435 C 151.54625 51.275 148.73375 50.195 145.22375 50.195 z M 145.29125 89.21 C 140.65625 89.21 137.19125 90.8075 134.89625 94.0025 C 132.64625 97.1975 131.52125 100.6625 131.52125 104.3975 C 131.52125 109.6175 132.84875 113.69 135.50375 116.615 C 138.20375 119.54 141.55625 121.0025 145.56125 121.0025 C 149.47625 121.0025 152.71625 119.6075 155.28125 116.8175 C 157.84625 113.9825 159.12875 109.91 159.12875 104.6 C 159.12875 99.965 157.82375 96.2525 155.21375 93.4625 C 152.60375 90.6275 149.29625 89.21 145.29125 89.21 z M 254.38375 127.89375 C 259.06136 127.7688 263.79525 128.15325 268.51 129.06625 C 293.922 133.98125 313.8735 154.49525 318.1575 180.12125 C 320.2225 192.46025 318.652 204.91025 313.805 216.04625 C 324.292 216.64325 334.48125 220.06475 344.26125 226.26875 C 362.98325 238.16375 374.37525 256.084 375.50125 275.43 C 376.47425 292.292 370.424 308.548 358.46 321.22 C 345.967 334.464 328.4995 342.0575 310.5375 342.0575 C 304.0865 342.0575 297.8045 341.0345 291.8825 339.0375 C 293.0175 343.7905 294.68225 348.41475 296.86625 352.78375 L 303.20625 365.4725 C 305.21125 369.4495 305.007 374.109 302.66 377.915 C 300.305 381.721 296.2425 383.99875 291.7625 383.99875 L 220.2375 383.99875 C 215.7665 383.99875 211.7035 381.7285 209.3475 377.9225 C 207.0005 374.1255 206.779 369.4655 208.785 365.4725 L 215.13375 352.78375 C 217.30975 348.43175 218.97375 343.8235 220.10875 339.0875 C 214.22975 341.0675 208.0095 342.0575 201.4725 342.0575 C 183.5095 342.0575 166.059 334.45475 153.6 321.19375 C 141.628 308.46175 135.6115 292.1285 136.6525 275.2075 C 137.8385 255.7515 149.317 237.8415 168.115 226.0475 C 177.775 219.9805 187.844 216.63525 198.195 216.04625 C 194.756 208.16125 192.9375 199.611 192.9375 190.915 C 192.9385 172.023 201.31 154.29075 215.885 142.25875 C 226.829 133.228 240.35092 128.26861 254.38375 127.89375 z M 110.9325 170.6675 C 115.6515 170.6675 119.46625 174.481 119.46625 179.2 L 119.46625 460.8 L 307.2 460.8 C 311.919 460.8 315.7325 464.6135 315.7325 469.3325 C 315.7325 474.0435 311.919 477.8675 307.2 477.8675 L 110.9325 477.8675 C 106.2135 477.8675 102.4 474.04375 102.4 469.33375 L 102.4 179.2 C 102.4 174.481 106.2135 170.6675 110.9325 170.6675 z M 365.6075 374.9125 C 374.6075 374.9125 382.1 377.275 388.085 382 C 395.15 387.58 398.6825 395.23 398.6825 404.95 C 398.6825 410.305 397.355 415.21 394.7 419.665 C 392.045 424.165 387.86 427.63 382.145 430.06 C 387.05 432.13 390.6275 434.965 392.8775 438.565 C 395.0825 442.21 396.185 446.1925 396.185 450.5125 C 396.185 457.8925 393.62 463.99 388.49 468.805 C 383.315 473.62 375.98 476.0275 366.485 476.0275 C 357.08 476.0275 349.79 473.62 344.615 468.805 C 339.395 463.99 336.785 457.8925 336.785 450.5125 C 336.785 445.9225 337.9775 441.8275 340.3625 438.2275 C 342.7475 434.6725 346.1 431.95 350.42 430.06 C 344.93 427.855 340.7675 424.6375 337.9325 420.4075 C 335.0525 416.1775 333.6125 411.295 333.6125 405.76 C 333.6125 396.625 336.5375 389.2 342.3875 383.485 C 348.1925 377.77 355.9325 374.9125 365.6075 374.9125 z M 365.945 390.1675 C 362.03 390.1675 358.79 391.5625 356.225 394.3525 C 353.66 397.1875 352.3775 401.26 352.3775 406.57 C 352.3775 411.205 353.6825 414.9175 356.2925 417.7075 C 358.9025 420.5425 362.21 421.96 366.215 421.96 C 370.85 421.96 374.315 420.3625 376.61 417.1675 C 378.86 413.9725 379.985 410.5075 379.985 406.7725 C 379.985 401.5525 378.6575 397.48 376.0025 394.555 C 373.3025 391.63 369.95 390.1675 365.945 390.1675 z M 366.485 437.1475 C 362.885 437.1475 360.005 438.205 357.845 440.32 C 355.685 442.48 354.605 445.45 354.605 449.23 C 354.605 452.785 355.685 455.62 357.845 457.735 C 359.96 459.895 362.7725 460.975 366.2825 460.975 C 369.9275 460.975 372.83 459.895 374.99 457.735 C 377.15 455.575 378.23 452.7175 378.23 449.1625 C 378.23 445.3825 377.1725 442.435 375.0575 440.32 C 372.8975 438.205 370.04 437.1475 366.485 437.1475 z " /> </g> </g> </g> </g>

</svg>
