<?xml version="1.0" encoding="UTF-8" standalone="no"?>
<!-- Created with Inkscape (http://www.inkscape.org/) -->

<svg
   version="1.1"
   id="svg1"
   width="64"
   height="64"
   viewBox="0 0 64 64"
   sodipodi:docname="babyfoot.svg"
   inkscape:version="1.4.2 (f4327f4, 2025-05-13)"
   xmlns:inkscape="http://www.inkscape.org/namespaces/inkscape"
   xmlns:sodipodi="http://sodipodi.sourceforge.net/DTD/sodipodi-0.dtd"
   xmlns="http://www.w3.org/2000/svg"
   xmlns:svg="http://www.w3.org/2000/svg">
  <defs
     id="defs1" />
  <sodipodi:namedview
     id="namedview1"
     bordercolor="#ffffff"
     borderopacity="0.25"
     inkscape:showpageshadow="2"
     inkscape:pageopacity="0.0"
     inkscape:pagecheckerboard="0"
     inkscape:deskcolor="#d1d1d1"
     inkscape:zoom="6.3046875"
     inkscape:cx="18.874845"
     inkscape:cy="18.16109"
     inkscape:window-width="1920"
     inkscape:window-height="1009"
     inkscape:window-x="-8"
     inkscape:window-y="-8"
     inkscape:window-maximized="1"
     inkscape:current-layer="svg1" />
  <g
     inkscape:groupmode="layer"
     inkscape:label="Image"
     id="g1">
    <path
       style="fill:#ffffff"
       d="M 20.005663,59.863454 C 18.106679,59.491206 16.493716,57.838592 16.126748,55.889189 16.025447,55.351054 
       16,54.090063 16,48 l -2.1875,0.0019 -0.286877,0.502329 c -0.375702,0.657864 -1.136585,1.197017 -1.941105,1.375444 
       -0.403931,0.08958 -1.517325,0.127399 -2.9634867,0.100649 C 6.4252707,49.939733 6.2722616,49.92086 5.6846851,49.618175 
       3.8885883,48.692929 3.5044193,46.337686 4.9188811,44.923224 5.7008311,44.141274 6.3257662,44 9.0028213,44 c 2.4180557,0 
       3.0732657,0.117335 3.8151877,0.683227 0.237455,0.181116 0.558357,0.55105 0.713114,0.822075 L 13.8125,45.998074 16,46 
       v -6 l -2.1875,0.0019 -0.286877,0.502329 c -0.375702,0.657864 -1.136585,1.197017 -1.941105,1.375444 -0.403931,0.08958 
       -1.517325,0.127399 -2.9634867,0.100649 C 6.4252707,41.939733 6.2722616,41.92086 5.6846851,41.618175 3.8885883,40.692929 
       3.5044193,38.337686 4.9188811,36.923224 5.7008311,36.141274 6.3257662,36 9.0028213,36 c 2.4180557,0 3.0732657,0.117335 
       3.8151877,0.683227 0.237455,0.181116 0.558357,0.55105 0.713114,0.822075 L 13.8125,37.998074 16,38 V 26 l -2.1875,0.0019 
       -0.286877,0.502329 c -0.375702,0.657864 -1.136585,1.197017 -1.941105,1.375444 -0.403931,0.08958 -1.517325,0.127399 
       -2.9634867,0.100649 C 6.4252707,27.939733 6.2722616,27.92086 5.6846851,27.618175 3.8885883,26.692929 3.5044193,24.337686 
       4.9188811,22.923224 5.7008311,22.141274 6.3257662,22 9.0028213,22 c 2.4180557,0 3.0732657,0.117335 3.8151877,0.683227 
       0.237455,0.181116 0.558357,0.55105 0.713114,0.822075 L 13.8125,23.998074 16,24 v -6 l -2.1875,0.0019 -0.286877,0.502329 
       c -0.375702,0.657864 -1.136585,1.197017 -1.941105,1.375444 -0.403931,0.08958 -1.517325,0.127399 -2.9634867,0.100649 
       C 6.4252707,19.939733 6.2722616,19.92086 5.6846851,19.618175 3.8885883,18.692929 3.5044193,16.337686 4.9188811,14.923224 
       5.7008311,14.141274 6.3257662,14 9.0028213,14 c 2.4180557,0 3.0732657,0.117335 3.8151877,0.683227 0.237455,0.181116 0.558357,0.55105 
       0.713114,0.822075 L 13.8125,15.998074 15.981617,16 c 0.187602,-2.857845 -0.235388,-5.804891 0.309133,-8.625 0.538154,-1.4006869 
       1.765451,-2.612415 3.127291,-3.0876194 0.99247,-0.3463153 24.170616,-0.3466075 25.163924,0 1.36184,0.4752044 2.589137,1.6869325 
       3.127291,3.0876194 0.40041,2.832164 0.276056,5.758133 0.30913,8.625 l 2.169117,-0.0019 0.281377,-0.492772 c 0.356018,-0.623492 
       0.979896,-1.101733 1.732853,-1.328339 0.86849,-0.261377 4.771087,-0.24535 5.681832,0.02333 1.414034,0.417162 2.318265,1.950611 
       1.996926,3.386506 -0.193409,0.864244 -0.781713,1.627778 -1.565173,2.031372 -0.587577,0.302685 -0.740586,0.321558 -2.936346,0.362173 
       -1.446162,0.02675 -2.559556,-0.01106 -2.963487,-0.100649 -0.80452,-0.178427 -1.565403,-0.71758 -1.941105,-1.375444 L 50.1875,18.001926 
       48,18 v 6 l 2.1875,-0.0019 0.281377,-0.492772 c 0.356018,-0.623492 0.979896,-1.101733 1.732853,-1.328339 0.86849,-0.261377 4.771087,-0.24535 
       5.681832,0.02333 1.414034,0.417162 2.318265,1.950611 1.996926,3.386506 -0.193409,0.864244 -0.781713,1.627778 -1.565173,2.031372 
       -0.587577,0.302685 -0.740586,0.321558 -2.936346,0.362173 -1.446162,0.02675 -2.559556,-0.01106 -2.963487,-0.100649 -0.80452,-0.178427 
       -1.565403,-0.71758 -1.941105,-1.375444 L 50.1875,26.001926 48,26 v 12 l 2.1875,-0.0019 0.281377,-0.492772 c 0.356018,-0.623492 
       0.979896,-1.101733 1.732853,-1.328339 0.86849,-0.261377 4.771087,-0.24535 5.681832,0.02333 1.414034,0.417162 2.318265,1.950611 
       1.996926,3.386506 -0.193409,0.864244 -0.781713,1.627778 -1.565173,2.031372 -0.587577,0.302685 -0.740586,0.321558 -2.936346,0.362173 
       -1.446162,0.02675 -2.559556,-0.01106 -2.963487,-0.100649 -0.80452,-0.178427 -1.565403,-0.71758 -1.941105,-1.375444 L 50.1875,40.001926 
       48,40 v 6 l 2.1875,-0.0019 0.281377,-0.492772 c 0.356018,-0.623492 0.979896,-1.101733 1.732853,-1.328339 0.86849,-0.261377 4.771087,-0.24535 5.681832,0.02333 1.414034,0.417162 2.318265,1.950611 1.996926,3.386506 -0.193409,0.864244 -0.781713,1.627778 -1.565173,2.031372 -0.587577,0.302685 -0.740586,0.321558 -2.936346,0.362173 -1.446162,0.02675 -2.559556,-0.01106 -2.963487,-0.100649 -0.80452,-0.178427 -1.565403,-0.71758 -1.941105,-1.375444 L 50.1875,48.001926 48,48 c -0.09854,2.706708 0.211875,5.454932 -0.199776,8.141499 -0.408983,1.798158 -1.860567,3.249742 -3.658725,3.658725 -1.641696,0.373395 -23.783604,0.132271 -24.135836,0.06323 z M 25,56.397688 c 0,-2.018782 0.193467,-2.74905 0.921053,-3.476635 C 26.790624,52.051482 27.130402,52 32,52 c 4.91218,0 5.223442,0.04838 6.087677,0.946154 C 38.817935,53.704754 39,54.395004 39,56.404973 v 1.609599 l 2.479076,-0.03854 2.479075,-0.03854 0.61137,-0.378304 c 0.378408,-0.234153 0.755522,-0.611447 0.989675,-0.990148 L 45.9375,55.957205 46.003844,33 h -6.092921 c -2.31573,9.554418 -13.923427,8.843525 -15.825705,0 H 18 v 11.316515 c 0,12.299202 -0.03333,11.687034 0.687872,12.632584 0.167826,0.220031 0.599005,0.546496 0.958176,0.725478 C 20.279923,57.99045 20.36806,58 22.649543,58 H 25 Z m 12,-0.09087 c 0,-1.631032 -0.01126,-1.704444 -0.306818,-2 L 36.386364,54 h -8.772728 l -0.306818,0.306818 C 27.011262,54.602374 27,54.675786 27,56.306818 V 58 H 37 Z M 11.693182,47.693182 C 11.886586,47.499777 12,47.243547 12,47 12,46.756453 11.886586,46.500223 11.693182,46.306818 11.388853,46.002489 11.367003,46 9,46 6.6329966,46 6.6111472,46.002489 6.3068182,46.306818 6.1134135,46.500223 6,46.756453 6,47 6,47.243547 6.1134135,47.499777 6.3068182,47.693182 6.6111472,47.997511 6.6329966,48 9,48 c 2.367003,0 2.388853,-0.0025 2.693182,-0.306818 z m 46,0 C 57.886586,47.499777 58,47.243547 58,47 58,46.756453 57.886586,46.500223 57.693182,46.306818 57.388853,46.002489 57.367003,46 55,46 52.632997,46 52.611147,46.0025 52.306818,46.306818 52.113414,46.500223 52,46.756453 52,47 c 0,0.243547 0.113414,0.499777 0.306818,0.693182 C 52.611147,47.997511 52.632997,48 55,48 c 2.367003,0 2.388853,-0.0025 2.693182,-0.306818 z m -46,-8 C 11.886586,39.499777 12,39.243547 12,39 12,38.756453 11.886586,38.500223 11.693182,38.306818 11.388853,38.002489 11.367003,38 9,38 6.6329966,38 6.6111472,38.002489 6.3068182,38.306818 6.1134135,38.500223 6,38.756453 6,39 6,39.243547 6.1134135,39.499777 6.3068182,39.693182 6.6111472,39.997511 6.6329966,40 9,40 c 2.367003,0 2.388853,-0.0025 2.693182,-0.306818 z m 46,0 C 57.886586,39.499777 58,39.243547 58,39 58,38.756453 57.886586,38.500223 57.693182,38.306818 57.388853,38.002489 57.367003,38 55,38 52.632997,38 52.611147,38.0025 52.306818,38.306818 52.113414,38.500223 52,38.756453 52,39 c 0,0.243547 0.113414,0.499777 0.306818,0.693182 C 52.611147,39.997511 52.632997,40 55,40 c 2.367003,0 2.388853,-0.0025 2.693182,-0.306818 z M 37.907711,33 H 32 26.092289 c 0.988683,6.092101 10.765663,6.468818 11.815422,0 z m 2.003212,-2 h 6.092921 L 45.9375,8.0427947 45.559196,7.4309518 C 45.325043,7.0522507 44.947929,6.6749565 44.569521,6.4408044 L 43.958151,6.0625 41.479076,6.0239642 39,5.9854284 V 7.5950265 C 39,9.6338107 38.816672,10.314907 38.065789,11.065789 37.176372,11.955207 36.885534,12 32,12 27.114466,12 26.823628,11.955207 25.934211,11.065789 25.183328,10.314907 25,9.6338107 25,7.5950265 V 5.9854284 L 22.520924,6.0239642 20.041849,6.0625 19.430479,6.4408044 C 19.052071,6.6749565 18.674957,7.0522507 18.440804,7.4309518 L 18.0625,8.0427947 17.996156,31 h 6.089062 c 1.854203,-8.620032 13.456397,-9.775472 15.825705,0 z M 26.092289,31 H 32 37.907711 C 36.925909,24.949946 27.210336,24.110381 26.092289,31 Z M 11.693182,25.693182 C 11.886586,25.499777 12,25.243547 12,25 12,24.756453 11.886586,24.500223 11.693182,24.306818 11.388853,24.002489 11.367003,24 9,24 6.6329966,24 6.6111472,24.002489 6.3068182,24.306818 6.1134135,24.500223 6,24.756453 6,25 6,25.243547 6.1134135,25.499777 6.3068182,25.693182 6.6111472,25.997511 6.6329966,26 9,26 c 2.367003,0 2.388853,-0.0025 2.693182,-0.306818 z m 46,0 C 57.886586,25.499777 58,25.243547 58,25 58,24.756453 57.886586,24.500223 57.693182,24.306818 57.388853,24.002489 57.367003,24 55,24 52.632997,24 52.611147,24.0025 52.306818,24.306818 52.113414,24.500223 52,24.756453 52,25 c 0,0.243547 0.113414,0.499777 0.306818,0.693182 C 52.611147,25.997511 52.632997,26 55,26 c 2.367003,0 2.388853,-0.0025 2.693182,-0.306818 z m -46,-8 C 11.886586,17.499777 12,17.243547 12,17 12,16.756453 11.886586,16.500223 11.693182,16.306818 11.388853,16.002489 11.367003,16 9,16 6.6329966,16 6.6111472,16.002489 6.3068182,16.306818 6.1134135,16.500223 6,16.756453 6,17 6,17.243547 6.1134135,17.499777 6.3068182,17.693182 6.6111472,17.997511 6.6329966,18 9,18 c 2.367003,0 2.388853,-0.0025 2.693182,-0.306818 z m 46,0 C 57.886586,17.499777 58,17.243547 58,17 58,16.756453 57.886586,16.500223 57.693182,16.306818 57.388853,16.002489 57.367003,16 55,16 52.632997,16 52.611147,16.0025 52.306818,16.306818 52.113414,16.500223 52,16.756453 52,17 c 0,0.243547 0.113414,0.499777 0.306818,0.693182 C 52.611147,17.997511 52.632997,18 55,18 c 2.367003,0 2.388853,-0.0025 2.693182,-0.306818 z m -21,-8.0000002 C 36.988738,9.3976256 37,9.3242144 37,7.6931818 V 6 H 27 v 1.6931818 c 0,1.6310326 0.01126,1.7044438 0.306818,2 L 27.613636,10 h 8.772728 z"
       id="path1"
       sodipodi:nodetypes="csccssssssssccccssssssssccccssssssssccccssssssssccsssssccssssssssccccssssssssccccssssssssccccssssssssccscsssssscccsscccsccssssccssccsscsssssssssssssssssssssssssssssssssssscscccscccsscccssssscccsscccsccsscssssssssssssssssscsssssssssssssssccssccssc" />
  </g>
</svg>
