<?xml version="1.0" encoding="UTF-8" standalone="no"?>
<!-- Uploaded to: SVG Repo, www.svgrepo.com, Generator: SVG Repo Mixer Tools -->

<svg
   fill="#ffffff"
   height="800px"
   width="800px"
   version="1.1"
   id="Layer_1"
   viewBox="0 0 512 512"
   xml:space="preserve"
   sodipodi:docname="bataille-corse.svg"
   inkscape:version="1.4.2 (f4327f4, 2025-05-13)"
   inkscape:export-batch-path="C:\Users\delen\Downloads"
   inkscape:export-batch-name="bataille-corse"
   inkscape:export-filename="C:\Users\delen\Downloads\bataille-corse.svg"
   inkscape:export-xdpi="96"
   inkscape:export-ydpi="96"
   xmlns:inkscape="http://www.inkscape.org/namespaces/inkscape"
   xmlns:sodipodi="http://sodipodi.sourceforge.net/DTD/sodipodi-0.dtd"
   xmlns="http://www.w3.org/2000/svg"
   xmlns:svg="http://www.w3.org/2000/svg"><defs
   id="defs2" /><sodipodi:namedview
   id="namedview2"
   pagecolor="#ffffff"
   bordercolor="#000000"
   borderopacity="0.25"
   inkscape:showpageshadow="2"
   inkscape:pageopacity="0.0"
   inkscape:pagecheckerboard="0"
   inkscape:deskcolor="#d1d1d1"
   inkscape:zoom="0.35664699"
   inkscape:cx="-164.02774"
   inkscape:cy="-37.852556"
   inkscape:window-width="1920"
   inkscape:window-height="1009"
   inkscape:window-x="-8"
   inkscape:window-y="-8"
   inkscape:window-maximized="1"
   inkscape:current-layer="Layer_1" />
<path
   id="path1"
   d="M 234.66625,0 C 105.66549,0 42.169194,90.301228 33.13125,163.40375 l -26.8562147,7.51561 -2.8548904,36.62002 5.2763995,-0.11098 1.5752616,-32.13142 21.595057,-6.16739 -23.2672315,38.30235 4.5473875,-0.11097 21.819368,-35.38396 -0.611776,38.6949 25.663266,226.17618 -6.039522,4.64264 -12.095931,-11.50779 6.297608,-0.74084 7.643476,7.11007 -25.95258,-215.83491 18.461087,209.23529 -6.661796,0.40132 -16.531498,-214.71335 7.918449,243.33062 -21.466351,4.88755 -0.156763,-6.32801 16.466497,-2.84581 -6.637582,-240.16731 -7.310516,1.1918 3.905056,242.55092 -5.994614,-0.76249 -1.8970745,-242.47494 -6.2756398,-7.28894 26.5859873,-0.5596 1.407028,-30.1687 3.201518,-5.27015 6.566191,-10.87792 L 98.038549,145.25338 379.81875,53.57 c -0.46084,-0.421043 11.18939,11.68954 16.52195,20.54989 5.33255,8.860349 8.78857,13.836016 16.04833,25.791983 7.25977,11.955957 10.07546,24.547737 15.39626,33.413537 5.32079,8.8658 8.70556,19.08121 8.2212,18.67107 -1.93743,-1.64057 6.86357,-11.18845 4.83137,-12.77937 -2.03221,-1.59092 -11.09091,-18.38227 -13.21862,-19.91748 -2.1277,-1.53521 -8.11002,-20.171166 -10.33394,-21.644609 -2.22392,-1.473443 -14.33009,-22.582394 -14.43037,-25.891359 -0.0822,-2.712083 -13.57264,-23.078164 -15.99114,-24.4099 -2.41851,-1.331737 -9.71489,1.127298 -11.52681,-1.021799 C 366.79285,36.197885 329.01471,19.760804 326.39875,18.595 300.7247,7.1533566 270.261,0 234.66625,0 Z M 433.38123,140.00092 34.41125,207.81125 c 7.823341,44.52893 33.215486,88.58526 54.31375,125.1375 14.72,25.515 28.6075,49.6215 28.6075,61.7175 0,27.157 -44.15975,80.981 -61.18375,99.435 -2.859,3.115 -3.627,7.61575 -1.92,11.49875 1.707,3.904 5.52525,6.4 9.77125,6.4 h 234.6675 c 5.888,0 10.3675,-3.1145 10.3675,-9.0025 3.776,-7.616 41.6645,-28.07575 76.6725,-33.81375 26.283,-4.288 62.27125,-10.19625 62.27125,-42.51625 0,-14.059 -4.864,-21.3125 -8.085,-26.1125 -2.155,-3.221 -2.58075,-4.0105 -3.90375,-5.9725 5.909,0.832 11.17875,-3.414 11.90375,-9.26 0.277,-2.261 -0.1705,-4.458 -1.1725,-6.335 l 8.78875,-8.79 c 2.859,-2.859 3.86125,-7.0825 2.58125,-10.9225 l -7.125,-21.37625 C 463.25325,333.67475 480,324.9705 480,309.3325 c 0,-15.125 -31.168,-70.9115 -46.72,-97.8125 1.451,-7.68 4.0525,-25.237 4.0525,-51.52 0,-3.53131 -3.21632,-15.72482 -3.95127,-19.99908 z"
   sodipodi:nodetypes="scccccccccccccccccccccccccccccccccccsssssssssssscccsccssccscccccccscsc" />
</svg>
