<?xml version="1.0" encoding="UTF-8" standalone="no"?>
<!-- Uploaded to: SVG Repo, www.svgrepo.com, Generator: SVG Repo Mixer Tools -->

<svg
   width="800px"
   height="800px"
   viewBox="0 0 512 512"
   version="1.1"
   id="svg1"
   sodipodi:docname="card-pick-svgrepo-com.svg"
   inkscape:version="1.4.2 (f4327f4, 2025-05-13)"
   xmlns:inkscape="http://www.inkscape.org/namespaces/inkscape"
   xmlns:sodipodi="http://sodipodi.sourceforge.net/DTD/sodipodi-0.dtd"
   xmlns="http://www.w3.org/2000/svg"
   xmlns:svg="http://www.w3.org/2000/svg">
  <defs
     id="defs1" />
  <sodipodi:namedview
     id="namedview1"
     pagecolor="#ffffff"
     bordercolor="#000000"
     borderopacity="0.25"
     inkscape:showpageshadow="2"
     inkscape:pageopacity="0.0"
     inkscape:pagecheckerboard="0"
     inkscape:deskcolor="#d1d1d1"
     inkscape:zoom="1.00875"
     inkscape:cx="400"
     inkscape:cy="400"
     inkscape:window-width="1920"
     inkscape:window-height="1009"
     inkscape:window-x="-8"
     inkscape:window-y="-8"
     inkscape:window-maximized="1"
     inkscape:current-layer="svg1" />
  <path
     fill="#ffffff"
     d="m 390.96246,488.7116 -120.6201,-56.06576 c -7.98096,-3.72001 -11.46266,-13.219 -7.74861,-21.22738 l 85.35036,-183.62899 c 3.71405,-7.99527 13.22615,-11.46743 21.21427,-7.75457 l 120.62009,56.08125 c 7.99527,3.71166 11.46267,13.21185 7.75696,21.20593 l -85.36228,183.62899 c -3.71762,8.00003 -13.22377,11.46028 -21.21188,7.76172 z M 99.882326,468.67458 19.805739,282.68156 c -3.487652,-8.09893 0.259757,-17.49902 8.345581,-20.97953 l 39.648658,-17.07245 49.542052,186.17889 c 4.75427,17.79811 23.02065,28.40644 40.83068,23.66885 l 39.48779,-10.513 -76.78911,33.06776 c -8.10012,3.47931 -17.50022,-0.26214 -20.987872,-8.36107 z M 134.16784,426.33303 82.09256,230.63726 c -2.269893,-8.52193 2.814429,-17.27501 11.32206,-19.53895 l 34.42373,-9.15464 -4.14061,30.81812 c -2.45459,18.24613 10.34261,35.05883 28.60899,37.51937 l 80.75577,10.88476 -32.86996,110.73504 c -3.38995,11.41261 -0.37296,23.21844 6.9467,31.54258 l -53.43721,14.21036 c -8.51478,2.27109 -17.26906,-2.80013 -19.533,-11.31968 z m 109.68767,-4.81741 -16.20859,-4.81623 c -8.45996,-2.51654 -13.27381,-11.39713 -10.76441,-19.8559 l 57.62788,-194.12651 c 2.51654,-8.45997 11.41142,-13.27381 19.84875,-10.77156 l 49.64811,14.75132 0.007,-0.007 0.13345,0.0417 -0.1406,-0.0358 c -4.99258,3.28867 -9.14749,7.95952 -11.84039,13.75877 l -85.36704,183.65044 c -2.61425,5.63958 -3.52697,11.64378 -2.94312,17.40847 z m -5.77423,-157.2327 -83.44746,-11.24819 c -8.73164,-1.18201 -14.87048,-9.22613 -13.69562,-17.96611 L 167.98031,34.376704 c 1.17606,-8.734025 9.23447,-14.870481 17.94467,-13.698001 l 131.84445,17.768318 c 8.72449,1.17963 14.87048,9.232091 13.68847,17.956583 l -16.63397,123.470266 -15.51392,-4.60651 c -17.66823,-5.25233 -36.23726,4.84482 -41.47529,22.49399 l -19.75105,66.52157 z"
     id="path1"
     style="fill:#ffffff;fill-opacity:1;stroke-width:1.19154"
     sodipodi:nodetypes="ccccccccccccccccccccccccccccccccccccccccccccccccccccccccc" />
</svg>
