<?xml version="1.0" encoding="UTF-8" standalone="no"?>
<!-- Uploaded to: SVG Repo, www.svgrepo.com, Generator: SVG Repo Mixer Tools -->

<svg
   fill="#ffffff"
   version="1.1"
   id="Capa_1"
   width="800px"
   height="800px"
   viewBox="0 0 37 37"
   xml:space="preserve"
   sodipodi:docname="cards-werewolf.svg"
   inkscape:version="1.4.2 (f4327f4, 2025-05-13)"
   xmlns:inkscape="http://www.inkscape.org/namespaces/inkscape"
   xmlns:sodipodi="http://sodipodi.sourceforge.net/DTD/sodipodi-0.dtd"
   xmlns="http://www.w3.org/2000/svg"
   xmlns:svg="http://www.w3.org/2000/svg"><defs
   id="defs1" /><sodipodi:namedview
   id="namedview1"
   pagecolor="#ffffff"
   bordercolor="#000000"
   borderopacity="0.25"
   inkscape:showpageshadow="2"
   inkscape:pageopacity="0.0"
   inkscape:pagecheckerboard="0"
   inkscape:deskcolor="#d1d1d1"
   showgrid="false"
   inkscape:zoom="1.00875"
   inkscape:cx="400"
   inkscape:cy="400"
   inkscape:window-width="1920"
   inkscape:window-height="1009"
   inkscape:window-x="-8"
   inkscape:window-y="-8"
   inkscape:window-maximized="1"
   inkscape:current-layer="Capa_1"><inkscape:grid
     id="grid1"
     units="px"
     originx="0"
     originy="0"
     spacingx="0.04625"
     spacingy="0.04625"
     empcolor="#0099e5"
     empopacity="0.30196078"
     color="#0099e5"
     opacity="0.14902"
     empspacing="5"
     enabled="true"
     visible="false" /></sodipodi:namedview>
<path
   id="path1"
   d="M 2.2499902 0 C 1.1459902 0 0.25003906 0.8960415 0.25003906 2.0000415 L 0.25003906 28.500027 C 0.25003906 29.604027 1.1459902 30.499978 2.2499902 30.499978 C 3.3549902 30.499978 4.2500317 29.604027 4.2500317 28.500027 L 4.2500317 3.9999927 L 28.749976 3.9999927 C 29.854976 3.9999927 30.750017 3.1040415 30.750017 2.0000415 C 30.750017 0.8960415 29.854976 4.3816802e-16 28.749976 0 L 2.2499902 0 z M 8.2500244 6.500022 C 7.1460244 6.500022 6.2499829 7.3959731 6.2499829 8.4999731 L 6.2499829 34.999958 C 6.2499829 36.103958 7.1460244 37 8.2500244 37 L 34.75001 37 C 35.85501 37 36.749961 36.103958 36.749961 34.999958 L 36.749961 8.4999731 C 36.749961 7.3959731 35.85501 6.500022 34.75001 6.500022 L 8.2500244 6.500022 z M 21.7375 13.533906 C 26.688123 13.533906 30.700967 17.54694 30.700967 22.497283 C 30.700967 24.450439 30.074285 26.256331 29.014287 27.728682 L 28.025603 26.287705 L 29.407864 25.440571 L 27.98116 24.236626 L 29.006519 23.255439 L 27.449194 22.154292 C 27.880385 20.986523 27.512698 19.633577 27.512698 19.633577 L 25.175989 20.36906 C 25.175989 20.36906 23.81704 20.064776 23.215964 20.227239 C 22.837609 20.329163 21.943964 20.833769 21.67499 20.824875 C 21.406297 20.816542 19.873725 20.167565 19.011099 19.174058 C 18.686734 18.32211 17.907071 19.264476 18.289978 19.993911 L 17.940122 21.292253 L 18.185464 21.518174 C 18.099611 21.763898 17.923667 22.386 18.075801 23.01064 L 18.679219 21.973718 L 19.06873 22.332517 C 18.999544 22.569348 18.959606 22.873052 19.043708 23.191394 L 19.521113 22.749309 L 20.560835 23.70719 C 20.645217 23.78527 20.683107 23.901515 20.661013 24.014048 L 20.596968 24.338701 C 20.56479 24.50351 20.410132 25.048323 20.246479 25.085928 L 19.541799 25.24988 L 19.164844 24.764436 C 19.093941 24.950708 19.091923 25.15828 19.118323 25.348613 L 18.773345 25.42928 L 18.258362 24.699668 C 18.137775 24.972073 18.173398 25.305315 18.232256 25.554751 L 17.971016 25.616177 C 17.971016 25.616177 18.03214 25.834681 18.150415 26.19665 C 18.305105 26.670873 18.505167 26.930935 18.650403 27.133032 C 18.940069 27.536072 19.094836 27.590293 19.094836 27.590293 L 19.391035 26.842524 L 19.738362 27.04261 L 19.885061 26.746682 C 21.604012 27.090549 21.763078 29.223964 20.909065 31.421094 C 16.347126 31.002858 12.774033 27.168323 12.774033 22.497283 C 12.774033 17.54694 16.786877 13.533906 21.7375 13.533906 z " />
<style
   type="text/css"
   id="style1">
	.st0{fill:#ffffff;}
</style></svg>
