<?xml version="1.0" encoding="UTF-8" standalone="no"?>
<!-- Uploaded to: SVG Repo, www.svgrepo.com, Generator: SVG Repo Mixer Tools -->

<svg
   fill="#000000"
   width="800px"
   height="800px"
   viewBox="0 -64 640 640"
   version="1.1"
   id="svg1"
   sodipodi:docname="people-vs.svg"
   inkscape:version="1.4.2 (f4327f4, 2025-05-13)"
   xmlns:inkscape="http://www.inkscape.org/namespaces/inkscape"
   xmlns:sodipodi="http://sodipodi.sourceforge.net/DTD/sodipodi-0.dtd"
   xmlns="http://www.w3.org/2000/svg"
   xmlns:svg="http://www.w3.org/2000/svg">
  <defs
     id="defs1" />
  <sodipodi:namedview
     id="namedview1"
     pagecolor="#ffffff"
     bordercolor="#000000"
     borderopacity="0.25"
     inkscape:showpageshadow="2"
     inkscape:pageopacity="0.0"
     inkscape:pagecheckerboard="0"
     inkscape:deskcolor="#d1d1d1"
     inkscape:zoom="0.71329397"
     inkscape:cx="384.83432"
     inkscape:cy="332.9623"
     inkscape:window-width="1920"
     inkscape:window-height="1009"
     inkscape:window-x="-8"
     inkscape:window-y="-8"
     inkscape:window-maximized="1"
     inkscape:current-layer="svg1" />
  <path
     d="M 128,96 C 154.5,96 176,74.5 176,48 176,21.5 154.5,0 128,0 101.5,0 80,21.5 80,48 c 0,26.5 21.5,48 48,48 z m 384,0 c 26.5,0 48,-21.5 48,-48 0,-26.5 -21.5,-48 -48,-48 -26.5,0 -48,21.5 -48,48 0,26.5 21.5,48 48,48 z m 125.7,372.1 -44,-110 -41.1,46.4 -2,18.2 27.7,69.2 c 5,12.5 17,20.1 29.7,20.1 4,0 8,-0.7 11.9,-2.3 16.4,-6.6 24.4,-25.2 17.8,-41.6 z M 603.5,258.3 585,178.1 c -4.6,-20 -18.6,-36.8 -37.5,-44.9 -18.5,-8 -39,-6.7 -56.1,3.3 -22.7,13.4 -39.7,34.5 -48.1,59.4 L 432,229.8 416,240 c -97.13813,2.54759 -116.2627,-0.58281 -192,0 l -16.1,-10.2 -11.3,-33.9 c -8.3,-25 -25.4,-46 -48.1,-59.4 -17.2,-10 -37.6,-11.3 -56.1,-3.3 -18.9,8.1 -32.9,24.9 -37.5,44.9 l -18.4,80.2 c -4.6,20 0.7,41.2 14.4,56.7 l 67.2,75.9 10.1,92.6 c 1.8,16.3 15.6,28.5 31.8,28.5 1.2,0 2.3,-0.1 3.5,-0.2 17.6,-1.9 30.2,-17.7 28.3,-35.3 l -10.1,-92.8 c -1.5,-13 -6.9,-25.1 -15.6,-35 l -43.3,-49 17.6,-70.3 6.8,20.4 c 4.1,12.5 11.9,23.4 24.5,32.6 l 51.1,32.5 c 81.92342,1.31388 79.11363,155.67807 78.26568,196.52416 l 39.8513,0.79306 C 342.84473,470.18154 347.96555,316.21388 417.2,314.9 l 51.1,-32.5 c 12.6,-9.2 20.4,-20 24.5,-32.6 l 6.8,-20.4 17.6,70.3 -43.3,49 c -8.7,9.9 -14.1,22 -15.6,35 l -10.1,92.8 c -1.9,17.6 10.8,33.4 28.3,35.3 1.2,0.1 2.3,0.2 3.5,0.2 16.1,0 30,-12.1 31.8,-28.5 l 10.1,-92.6 67.2,-75.9 c 13.6,-15.5 19,-36.7 14.4,-56.7 z m -557.2,99.8 -44,110 c -6.6,16.4 1.4,35 17.8,41.6 16.8,6.6 35.1,-1.7 41.6,-17.8 l 27.7,-69.2 -2,-18.2 z"
     id="path1"
     sodipodi:nodetypes="sssssssssscccccscccccccccccccccccccsccccccccccccccccccccsccccccccccc" />
</svg>
