<?xml version="1.0" encoding="UTF-8" standalone="no"?>
<!-- Uploaded to: SVG Repo, www.svgrepo.com, Generator: SVG Repo Mixer Tools -->

<svg
   height="800px"
   width="800px"
   version="1.1"
   id="_x32_"
   viewBox="0 0 512 512"
   xml:space="preserve"
   sodipodi:docname="president.svg"
   inkscape:version="1.4.2 (f4327f4, 2025-05-13)"
   xmlns:inkscape="http://www.inkscape.org/namespaces/inkscape"
   xmlns:sodipodi="http://sodipodi.sourceforge.net/DTD/sodipodi-0.dtd"
   xmlns="http://www.w3.org/2000/svg"
   xmlns:svg="http://www.w3.org/2000/svg"><defs
   id="defs7" /><sodipodi:namedview
   id="namedview7"
   pagecolor="#ffffff"
   bordercolor="#ffffff"
   borderopacity="0.25"
   inkscape:showpageshadow="2"
   inkscape:pageopacity="0.0"
   inkscape:pagecheckerboard="0"
   inkscape:deskcolor="#d1d1d1"
   inkscape:zoom="0.71329397"
   inkscape:cx="396.04989"
   inkscape:cy="372.2168"
   inkscape:window-width="1920"
   inkscape:window-height="1009"
   inkscape:window-x="-8"
   inkscape:window-y="-8"
   inkscape:window-maximized="1"
   inkscape:current-layer="g7" />
<style
   type="text/css"
   id="style1">
	.st0{fill:#ffffff;}
</style>
<g
   id="g7">
	<path
   class="st0"
   d="M499.048,174.608l-104.262-46.414c-3.052-2.604-6.848-4.415-11.091-4.993l-0.172-0.043l-7.632-3.381   c-5.821-2.56-12.126-2.439-17.497-0.121l-80.858-11.391c-4.422-3.138-9.95-4.665-15.721-3.838l-5.82,0.828l-5.778-0.828   c-5.771-0.828-11.306,0.699-15.714,3.838l-80.866,11.391c-5.407-2.318-11.72-2.482-17.497,0.121l-7.632,3.381l-0.164,0.043   c-4.294,0.621-8.124,2.389-11.184,5.036L12.984,174.608C1.97,179.516-3.022,192.433,1.892,203.489l85.196,191.354   c4.95,11.013,17.825,15.964,28.881,11.056l83.012-36.97l57.056-8.003l57.021,8.003l83.012,36.97   c11.013,4.908,23.924-0.043,28.832-11.056l85.202-191.397C515.012,192.433,510.062,179.516,499.048,174.608z M285.911,120.269   l62.091,8.709c-0.37,0.621-0.699,1.234-0.991,1.898l-35.85,80.537c-2.561-5.778-4.501-11.02-5.158-14.529   c-0.128-0.657-0.292-0.992-0.584-1.027c-0.329-0.043-0.536,0.249-0.82,0.82c-1.242,2.475-3.588,5.778-6.434,9.408   c-2.768,3.431-5.984,7.14-9.323,10.728c-7.346,7.925-15.228,15.307-19.187,17.661l-0.371,0.449l0.25,0.585   c4.001,4.287,11.919,18.146,17.412,30.236l-25.13,56.486c-4.172,9.365-1.198,20.086,6.563,26.114   c1.362,1.07,2.888,1.983,4.536,2.725l4.536,2.018l-21.413-3.01l-12.375-1.733l-18.817-2.639l-8.374-1.198   c-6.105-0.863-10.314-6.477-9.486-12.54l6.926-49.388l11.056-78.469l11.185-79.588c0.328-2.397,1.405-4.501,2.974-6.106   c2.389-2.518,5.899-3.88,9.566-3.381l7.304,1.028l16.919,2.354L285.911,120.269z M111.596,396.12   c-5.613,2.475-12.176-0.042-14.694-5.649L11.708,199.117c-2.475-5.614,0.042-12.212,5.656-14.687l92.207-41.093   c-0.121,1.484-0.036,3.01,0.164,4.537l11.597,82.435c-5.114-2.311-9.572-4.544-12.254-6.898c-0.413-0.371-0.621-0.449-0.742-0.371   c-0.128,0.086-0.249,0.25-0.249,0.828c-0.079,8.502-7.425,24.423-10.522,37.462c-2.846,12.012,0.043,25.621,11.841,29.131   c7.019,2.104,15.307-1.362,19.309-7.547l10.15,72.406c1.57,11.056,11.178,19.016,22.112,18.81L111.596,396.12z M196.086,358.495   l-34.031,4.786c-6.07,0.863-11.676-3.388-12.546-9.451l-7.097-50.579l-2.839-20.015l-0.706-4.986l-6.027-42.912l-12.496-88.954   c-0.457-3.424,0.663-6.719,2.846-9.073c1.655-1.854,3.959-3.138,6.641-3.509l1.733-0.242l19.972-2.811l12.462-1.733l62.091-8.745   c-0.249,0.913-0.456,1.82-0.584,2.768l-10.393,74.054c-2.639-0.784-5.486-1.07-8.417-0.663   c-10.607,1.491-17.989,11.348-16.498,21.912c0.614,4.372,2.639,8.21,5.564,11.099c-1.07-0.042-2.104,0-3.174,0.164   c-10.564,1.483-17.989,11.305-16.505,21.912c1.491,10.6,11.348,17.989,21.905,16.499c2.768-0.371,5.328-1.363,7.554-2.761   l-9.159,65.188c-1.363,9.573,3.716,18.567,11.926,22.611c2.061,1.07,4.286,1.769,6.683,2.104l2.475,0.329L196.086,358.495z    M500.325,199.117l-85.202,191.354c-2.511,5.607-9.116,8.124-14.722,5.649l-49.388-21.99l-35.109-15.635l-12.212-5.443   l-16.548-7.346l-9.858-4.415c-5.613-2.518-8.132-9.08-5.649-14.686l20.706-46.542l4.087-9.159l8.253-18.524l12.618-28.425   l39.53-88.747c0.82-1.855,2.104-3.381,3.674-4.458c3.088-2.268,7.261-2.846,11.013-1.148l8.866,3.959l8.417,3.709l13.66,6.106   l92.214,41.057C500.283,186.905,502.8,193.503,500.325,199.117z"
   id="path1" />
	<text
   xml:space="preserve"
   style="font-weight:bold;font-size:54.6133px;font-family:Arial;-inkscape-font-specification:'Arial Bold';text-align:start;writing-mode:lr-tb;direction:ltr;text-anchor:start;fill:#ffffff;stroke:#ffffff;stroke-width:6.4;fill-opacity:1;stroke-opacity:1"
   x="-79.992432"
   y="222.33371"
   id="text7"
   transform="rotate(-30)"><tspan
     sodipodi:role="line"
     id="tspan7"
     style="font-size:54.6133px;stroke-width:6.4;fill:#ffffff;fill-opacity:1;stroke:#ffffff;stroke-opacity:1"
     x="-79.992432"
     y="222.33371">2</tspan></text><text
   xml:space="preserve"
   style="font-weight:bold;font-size:54.6133px;font-family:Arial;-inkscape-font-specification:'Arial Bold';text-align:start;writing-mode:lr-tb;direction:ltr;text-anchor:start;fill:#ffffff;stroke:#ffffff;stroke-width:6.4;fill-opacity:1;stroke-opacity:1"
   x="107.74557"
   y="203.21779"
   id="text8"
   transform="rotate(-9.5693472)"><tspan
     sodipodi:role="line"
     id="tspan8"
     style="stroke-width:6.4;fill:#ffffff;fill-opacity:1;stroke:#ffffff;stroke-opacity:1"
     x="107.74557"
     y="203.21779">2</tspan></text><text
   xml:space="preserve"
   style="font-weight:bold;font-size:54.6133px;font-family:Arial;-inkscape-font-specification:'Arial Bold';text-align:start;writing-mode:lr-tb;direction:ltr;text-anchor:start;fill:#ffffff;stroke:#ffffff;stroke-width:6.4;fill-opacity:1;stroke-opacity:1"
   x="265.14771"
   y="129.15279"
   id="text9"
   transform="rotate(8.1708321)"><tspan
     sodipodi:role="line"
     id="tspan9"
     style="stroke-width:6.4;fill:#ffffff;fill-opacity:1;stroke:#ffffff;stroke-opacity:1"
     x="265.14771"
     y="129.15279">2</tspan></text><text
   xml:space="preserve"
   style="font-weight:bold;font-size:54.6133px;font-family:Arial;-inkscape-font-specification:'Arial Bold';text-align:start;writing-mode:lr-tb;direction:ltr;text-anchor:start;fill:#ffffff;stroke:#ffffff;stroke-width:6.4;fill-opacity:1;stroke-opacity:1"
   x="394.21158"
   y="20.268286"
   id="text10"
   transform="rotate(23.581803)"><tspan
     sodipodi:role="line"
     id="tspan10"
     style="stroke-width:6.4;fill:#ffffff;fill-opacity:1;stroke:#ffffff;stroke-opacity:1"
     x="394.21158"
     y="20.268286">2</tspan></text><text
   xml:space="preserve"
   style="font-weight:bold;font-size:54.6133px;font-family:Arial;-inkscape-font-specification:'Arial Bold';text-align:start;writing-mode:lr-tb;direction:ltr;text-anchor:start;fill:#ffffff;stroke:#ffffff;stroke-width:6.4;fill-opacity:1;stroke-opacity:1"
   x="-522.72693"
   y="-157.28732"
   id="text11"
   transform="rotate(-156.69065)"><tspan
     sodipodi:role="line"
     id="tspan11"
     style="stroke-width:6.4;fill:#ffffff;fill-opacity:1;stroke:#ffffff;stroke-opacity:1"
     x="-522.72693"
     y="-157.28732">2</tspan></text><path
   class="st0"
   d="M395.45,241.529c1.934-12.09-9.244-23.596-22.447-20.179c-12.625,3.26-18.482,18.403-14.608,34.331   c3.552,14.686,12.055,31.149,12.34,40.059l0.328,0.578l0.663-0.164c6.804-5.734,24.716-10.435,38.04-17.618   c14.402-7.796,21.742-22.233,15.721-33.831C419.174,232.613,403.161,231.999,395.45,241.529z"
   id="path2" />
	
	
	
	
	
</g>
</svg>
