<?xml version="1.0" encoding="UTF-8" standalone="no"?>
<!-- Uploaded to: SVG Repo, www.svgrepo.com, Generator: SVG Repo Mixer Tools -->

<svg
   fill="#ffffff"
   width="800px"
   height="800px"
   viewBox="0 0 52 52"
   enable-background="new 0 0 52 52"
   xml:space="preserve"
   version="1.1"
   id="svg6"
   sodipodi:docname="pyramide.svg"
   inkscape:version="1.4.2 (f4327f4, 2025-05-13)"
   xmlns:inkscape="http://www.inkscape.org/namespaces/inkscape"
   xmlns:sodipodi="http://sodipodi.sourceforge.net/DTD/sodipodi-0.dtd"
   xmlns="http://www.w3.org/2000/svg"
   xmlns:svg="http://www.w3.org/2000/svg"><defs
   id="defs6" /><sodipodi:namedview
   id="namedview6"
   pagecolor="#ffffff"
   bordercolor="#ffffff"
   borderopacity="0.25"
   inkscape:showpageshadow="2"
   inkscape:pageopacity="0.0"
   inkscape:pagecheckerboard="0"
   inkscape:deskcolor="#d1d1d1"
   inkscape:zoom="0.71329397"
   inkscape:cx="589.51851"
   inkscape:cy="534.8426"
   inkscape:window-width="1920"
   inkscape:window-height="1009"
   inkscape:window-x="-8"
   inkscape:window-y="-8"
   inkscape:window-maximized="1"
   inkscape:current-layer="svg6" />
<path
   d="m 18.4874,26.167699 h -5.640739 c -0.5014,0 -0.940125,0.353578 -0.940125,0.757668 v 8.586918 c 0,0.404089 0.438725,0.757667 0.940125,0.757667 H 18.4874 c 0.5014,0 0.940124,-0.353578 0.940124,-0.757667 v -8.586918 c 0,-0.40409 -0.438724,-0.757668 -0.940124,-0.757668 z"
   id="path1"
   style="fill:#ffffff;fill-opacity:1;stroke-width:0.562652" />
<path
   d="m 28.515385,26.167699 h -5.640741 c -0.501399,0 -0.940123,0.353578 -0.940123,0.757668 v 8.586918 c 0,0.404089 0.438724,0.757667 0.940123,0.757667 h 5.640741 c 0.501399,0 0.940125,-0.353578 0.940125,-0.757667 v -8.586918 c 0,-0.40409 -0.438726,-0.757668 -0.940125,-0.757668 z"
   id="path2"
   style="fill:#ffffff;fill-opacity:1;stroke-width:0.562652" />

<path
   d="M 13.435804,38.027744 H 7.7950617 c -0.5013975,0 -0.9401227,0.353581 -0.9401227,0.75767 v 8.586918 c 0,0.40409 0.4387252,0.757668 0.9401227,0.757668 h 5.6407423 c 0.501398,0 0.940123,-0.353578 0.940123,-0.757668 v -8.586918 c 0,-0.404089 -0.438725,-0.75767 -0.940123,-0.75767 z"
   id="path4"
   style="fill:#ffffff;fill-opacity:1;stroke-width:0.562652" />
<path
   d="m 23.463788,38.027744 h -5.640743 c -0.501397,0 -0.940121,0.353581 -0.940121,0.75767 v 8.586918 c 0,0.40409 0.438724,0.757668 0.940121,0.757668 h 5.640743 c 0.501399,0 0.940123,-0.353578 0.940123,-0.757668 v -8.586918 c 0,-0.404089 -0.438724,-0.75767 -0.940123,-0.75767 z"
   id="path5"
   style="fill:#ffffff;fill-opacity:1;stroke-width:0.562652" />
<path
   d="m 33.491772,38.027744 h -5.640741 c -0.501397,0 -0.940124,0.353581 -0.940124,0.75767 v 8.586918 c 0,0.40409 0.438727,0.757668 0.940124,0.757668 h 5.640741 c 0.501402,0 0.940125,-0.353578 0.940125,-0.757668 v -8.586918 c 0,-0.404089 -0.438723,-0.75767 -0.940125,-0.75767 z"
   id="path6"
   style="fill:#ffffff;fill-opacity:1;stroke-width:0.562652" /><path
   d="m 38.501869,26.141678 h -5.640741 c -0.501399,0 -0.940123,0.353579 -0.940123,0.757669 v 8.586916 c 0,0.404091 0.438724,0.757669 0.940123,0.757669 h 5.640741 c 0.501399,0 0.940124,-0.353578 0.940124,-0.757669 v -8.586916 c 0,-0.40409 -0.438725,-0.757669 -0.940124,-0.757669 z"
   id="path1-9"
   style="fill:#ffffff;fill-opacity:1;stroke-width:0.562652" /><path
   d="m 43.478256,38.001725 h -5.640741 c -0.501398,0 -0.940121,0.35358 -0.940121,0.757669 v 8.586916 c 0,0.404092 0.438723,0.75767 0.940121,0.75767 h 5.640741 c 0.5014,0 0.940126,-0.353578 0.940126,-0.75767 v -8.586916 c 0,-0.404089 -0.438726,-0.757669 -0.940126,-0.757669 z"
   id="path5-8"
   style="fill:#ffffff;fill-opacity:1;stroke-width:0.562652" /><path
   d="m 23.51024,14.296832 h -5.640741 c -0.501399,0 -0.940126,0.353579 -0.940126,0.757669 v 8.586918 c 0,0.404089 0.438727,0.757667 0.940126,0.757667 h 5.640741 c 0.501399,0 0.940122,-0.353578 0.940122,-0.757667 v -8.586918 c 0,-0.40409 -0.438723,-0.757669 -0.940122,-0.757669 z"
   id="path1-5"
   style="fill:#ffffff;fill-opacity:1;stroke-width:0.562652" /><path
   d="m 33.538224,14.296832 h -5.640742 c -0.501398,0 -0.940124,0.353579 -0.940124,0.757669 v 8.586918 c 0,0.404089 0.438726,0.757667 0.940124,0.757667 h 5.640742 c 0.501401,0 0.940125,-0.353578 0.940125,-0.757667 v -8.586918 c 0,-0.40409 -0.438724,-0.757669 -0.940125,-0.757669 z"
   id="path2-5"
   style="fill:#ffffff;fill-opacity:1;stroke-width:0.562652" /><path
   d="m 28.268677,2.4940682 h -5.640741 c -0.501399,0 -0.940126,0.3535796 -0.940126,0.7576698 v 8.586918 c 0,0.404089 0.438727,0.757667 0.940126,0.757667 h 5.640741 c 0.501399,0 0.940123,-0.353578 0.940123,-0.757667 V 3.251738 c 0,-0.4040902 -0.438724,-0.7576698 -0.940123,-0.7576698 z"
   id="path1-5-2"
   style="fill:#ffffff;fill-opacity:1;stroke-width:0.562652" />
</svg>
