<?xml version="1.0" encoding="UTF-8" standalone="no"?>
<!-- Uploaded to: SVG Repo, www.svgrepo.com, Generator: SVG Repo Mixer Tools -->

<svg
   fill="#ffffff"
   width="800px"
   height="800px"
   viewBox="0 0 52 52"
   enable-background="new 0 0 52 52"
   xml:space="preserve"
   version="1.1"
   id="svg6"
   sodipodi:docname="pyramide.svg"
   inkscape:version="1.4.2 (f4327f4, 2025-05-13)"
   xmlns:inkscape="http://www.inkscape.org/namespaces/inkscape"
   xmlns:sodipodi="http://sodipodi.sourceforge.net/DTD/sodipodi-0.dtd"
   xmlns="http://www.w3.org/2000/svg"
   xmlns:svg="http://www.w3.org/2000/svg"><defs
   id="defs6" /><sodipodi:namedview
   id="namedview6"
   pagecolor="#ffffff"
   bordercolor="#000000"
   borderopacity="0.25"
   inkscape:showpageshadow="2"
   inkscape:pageopacity="0.0"
   inkscape:pagecheckerboard="0"
   inkscape:deskcolor="#d1d1d1"
   inkscape:zoom="0.71329397"
   inkscape:cx="261.46303"
   inkscape:cy="314.737"
   inkscape:window-width="1920"
   inkscape:window-height="1009"
   inkscape:window-x="-8"
   inkscape:window-y="-8"
   inkscape:window-maximized="1"
   inkscape:current-layer="svg6" />
<path
   d="m 19.092822,32.133496 h -3.284234 c -0.291932,0 -0.547373,0.25544 -0.547373,0.547372 v 6.203556 c 0,0.291931 0.255441,0.547371 0.547373,0.547371 h 3.284234 c 0.291933,0 0.547373,-0.25544 0.547373,-0.547371 v -6.203556 c 0,-0.291932 -0.25544,-0.547372 -0.547373,-0.547372 z"
   id="path1"
   style="stroke-width:0.364914" />
<path
   d="m 24.931463,32.133496 h -3.284235 c -0.291932,0 -0.547373,0.25544 -0.547373,0.547372 v 6.203556 c 0,0.291931 0.255441,0.547371 0.547373,0.547371 h 3.284235 c 0.291932,0 0.547373,-0.25544 0.547373,-0.547371 v -6.203556 c 0,-0.291932 -0.255441,-0.547372 -0.547373,-0.547372 z"
   id="path2"
   style="stroke-width:0.364914" />

<path
   d="m 16.151608,40.701699 h -3.284236 c -0.291931,0 -0.547372,0.255442 -0.547372,0.547373 v 6.203556 C 12.32,47.74456 12.575441,48 12.867372,48 h 3.284236 c 0.291931,0 0.547372,-0.25544 0.547372,-0.547372 v -6.203556 c 0,-0.291931 -0.255441,-0.547373 -0.547372,-0.547373 z"
   id="path4"
   style="stroke-width:0.364914" />
<path
   d="m 21.990248,40.701699 h -3.284236 c -0.291931,0 -0.547371,0.255442 -0.547371,0.547373 v 6.203556 C 18.158641,47.74456 18.414081,48 18.706012,48 h 3.284236 c 0.291932,0 0.547372,-0.25544 0.547372,-0.547372 v -6.203556 c 0,-0.291931 -0.25544,-0.547373 -0.547372,-0.547373 z"
   id="path5"
   style="stroke-width:0.364914" />
<path
   d="m 27.828888,40.701699 h -3.284235 c -0.291931,0 -0.547373,0.255442 -0.547373,0.547373 v 6.203556 C 23.99728,47.74456 24.252722,48 24.544653,48 h 3.284235 c 0.291933,0 0.547373,-0.25544 0.547373,-0.547372 v -6.203556 c 0,-0.291931 -0.25544,-0.547373 -0.547373,-0.547373 z"
   id="path6"
   style="stroke-width:0.364914" /><path
   d="m 30.74594,32.114698 h -3.284235 c -0.291932,0 -0.547372,0.25544 -0.547372,0.547372 v 6.203555 c 0,0.291932 0.25544,0.547372 0.547372,0.547372 h 3.284235 c 0.291932,0 0.547373,-0.25544 0.547373,-0.547372 V 32.66207 c 0,-0.291932 -0.255441,-0.547372 -0.547373,-0.547372 z"
   id="path1-9"
   style="stroke-width:0.364914" /><path
   d="m 36.58458,32.114698 h -3.284234 c -0.291932,0 -0.547374,0.25544 -0.547374,0.547372 v 6.203555 c 0,0.291932 0.255442,0.547372 0.547374,0.547372 h 3.284234 c 0.291933,0 0.547373,-0.25544 0.547373,-0.547372 V 32.66207 c 0,-0.291932 -0.25544,-0.547372 -0.547373,-0.547372 z"
   id="path2-4"
   style="stroke-width:0.364914" /><path
   d="M 33.643365,40.682902 H 30.35913 c -0.291931,0 -0.547371,0.255441 -0.547371,0.547372 v 6.203555 c 0,0.291933 0.25544,0.547373 0.547371,0.547373 h 3.284235 c 0.291933,0 0.547374,-0.25544 0.547374,-0.547373 v -6.203555 c 0,-0.291931 -0.255441,-0.547372 -0.547374,-0.547372 z"
   id="path5-8"
   style="stroke-width:0.364914" /><path
   d="m 22.017294,23.557475 h -3.284235 c -0.291932,0 -0.547374,0.255441 -0.547374,0.547373 v 6.203556 c 0,0.291931 0.255442,0.547371 0.547374,0.547371 h 3.284235 c 0.291932,0 0.547372,-0.25544 0.547372,-0.547371 v -6.203556 c 0,-0.291932 -0.25544,-0.547373 -0.547372,-0.547373 z"
   id="path1-5"
   style="stroke-width:0.364914" /><path
   d="m 27.855934,23.557475 h -3.284236 c -0.291931,0 -0.547372,0.255441 -0.547372,0.547373 v 6.203556 c 0,0.291931 0.255441,0.547371 0.547372,0.547371 h 3.284236 c 0.291933,0 0.547373,-0.25544 0.547373,-0.547371 v -6.203556 c 0,-0.291932 -0.25544,-0.547373 -0.547373,-0.547373 z"
   id="path2-5"
   style="stroke-width:0.364914" /><path
   d="m 33.646467,23.587878 h -3.284235 c -0.291932,0 -0.547372,0.25544 -0.547372,0.547372 v 6.203555 c 0,0.291932 0.25544,0.547372 0.547372,0.547372 h 3.284235 c 0.291932,0 0.547373,-0.25544 0.547373,-0.547372 V 24.13525 c 0,-0.291932 -0.255441,-0.547372 -0.547373,-0.547372 z"
   id="path1-9-14"
   style="stroke-width:0.364914" /><path
   d="m 24.787821,15.030655 h -3.284235 c -0.291932,0 -0.547374,0.255441 -0.547374,0.547373 v 6.203556 c 0,0.291931 0.255442,0.547371 0.547374,0.547371 h 3.284235 c 0.291932,0 0.547372,-0.25544 0.547372,-0.547371 v -6.203556 c 0,-0.291932 -0.25544,-0.547373 -0.547372,-0.547373 z"
   id="path1-5-2"
   style="stroke-width:0.364914" /><path
   d="m 30.611005,15.142902 h -3.284236 c -0.291931,0 -0.547372,0.255441 -0.547372,0.547373 v 6.203556 c 0,0.291931 0.255441,0.547371 0.547372,0.547371 h 3.284236 c 0.291933,0 0.547373,-0.25544 0.547373,-0.547371 v -6.203556 c 0,-0.291932 -0.25544,-0.547373 -0.547373,-0.547373 z"
   id="path2-5-6"
   style="stroke-width:0.364914" /><path
   d="m 27.542892,6.6160823 h -3.284235 c -0.291932,0 -0.547374,0.255441 -0.547374,0.547373 v 6.2035557 c 0,0.291931 0.255442,0.547371 0.547374,0.547371 h 3.284235 c 0.291932,0 0.547372,-0.25544 0.547372,-0.547371 V 7.1634553 c 0,-0.291932 -0.25544,-0.547373 -0.547372,-0.547373 z"
   id="path1-5-2-8"
   style="stroke-width:0.364914" /><path
   d="m 39.482005,40.682902 h -3.284234 c -0.291932,0 -0.547373,0.255441 -0.547373,0.547372 v 6.203555 c 0,0.291933 0.255441,0.547373 0.547373,0.547373 h 3.284234 c 0.291933,0 0.547373,-0.25544 0.547373,-0.547373 v -6.203555 c 0,-0.291931 -0.25544,-0.547372 -0.547373,-0.547372 z"
   id="path6-2"
   style="stroke-width:0.364914" />
</svg>
