<?xml version="1.0" encoding="UTF-8" standalone="no"?>
<!-- Uploaded to: SVG Repo, www.svgrepo.com, Generator: SVG Repo Mixer Tools -->

<svg
   fill="#ffffff"
   width="800px"
   height="800px"
   viewBox="0 0 56 56"
   version="1.1"
   id="svg1"
   sodipodi:docname="square-werewolf.svg"
   xml:space="preserve"
   inkscape:version="1.4.2 (f4327f4, 2025-05-13)"
   xmlns:inkscape="http://www.inkscape.org/namespaces/inkscape"
   xmlns:sodipodi="http://sodipodi.sourceforge.net/DTD/sodipodi-0.dtd"
   xmlns="http://www.w3.org/2000/svg"
   xmlns:svg="http://www.w3.org/2000/svg"><defs
     id="defs1" /><sodipodi:namedview
     id="namedview1"
     pagecolor="#ffffff"
     bordercolor="#000000"
     borderopacity="0.25"
     inkscape:showpageshadow="2"
     inkscape:pageopacity="0.0"
     inkscape:pagecheckerboard="0"
     inkscape:deskcolor="#d1d1d1"
     inkscape:zoom="0.504375"
     inkscape:cx="338.04213"
     inkscape:cy="615.61338"
     inkscape:window-width="1920"
     inkscape:window-height="1009"
     inkscape:window-x="-8"
     inkscape:window-y="-8"
     inkscape:window-maximized="1"
     inkscape:current-layer="g1" /><style
     type="text/css"
     id="style1">
	.st0{fill:#ffffff;}
</style><g
     id="g1"
     transform="scale(0.109375)">
	<path
   id="path1"
   d="M 9.636758 2.7577539 C 4.738258 2.7577539 2.2773243 5.1952986 2.2773243 10.023399 L 2.2773243 34.703047 C 2.2773243 39.531147 4.738258 41.945313 9.636758 41.945313 L 10.785059 41.945313 L 10.785059 20.710977 C 10.785059 14.078077 14.30085 10.609375 20.98045 10.609375 L 42.027344 10.609375 L 42.027344 10.023399 C 42.027344 5.1952986 39.566411 2.7577539 34.667911 2.7577539 L 9.636758 2.7577539 z M 21.355469 13.820352 C 16.433569 13.820352 13.996035 16.234381 13.996035 21.062481 L 13.996035 45.976602 C 13.996035 50.804702 16.433569 53.242247 21.355469 53.242247 L 46.386759 53.242247 C 51.261659 53.242247 53.722677 50.804702 53.722677 45.976602 L 53.722677 21.062481 C 53.722677 16.257781 51.261659 13.820352 46.386759 13.820352 L 21.355469 13.820352 z M 34.020001 16.767188 C 43.492565 16.767188 51.170684 24.445843 51.170684 33.917872 C 51.170684 37.655057 49.971646 41.110525 47.943438 43.927735 L 46.051798 41.170528 L 48.696485 39.54959 L 45.966622 37.246016 L 47.928536 35.368594 L 44.948887 33.261622 C 45.773931 31.027203 45.070294 28.438457 45.070294 28.438457 L 40.599317 29.845567 C 40.599317 29.845567 37.998953 29.26346 36.848848 29.574317 C 36.124899 29.76934 34.415026 30.734849 33.900372 30.717833 C 33.38625 30.701888 30.453782 29.460066 28.803223 27.559082 C 28.182582 25.928957 26.690935 27.732086 27.423594 29.127793 L 26.753946 31.61211 L 27.223575 32.044415 C 27.059303 32.514586 26.722619 33.704867 27.013711 34.900059 L 28.168301 32.916133 L 28.913555 33.602598 C 28.781172 34.055752 28.704781 34.636975 28.865704 35.246094 L 29.779258 34.400215 L 31.768516 36.23293 C 31.929974 36.382329 32.002469 36.604816 31.960196 36.820137 L 31.837833 37.441387 C 31.776264 37.756733 31.480225 38.799103 31.16709 38.871055 L 29.818633 39.184688 L 29.097442 38.255958 C 28.961777 38.612371 28.957923 39.009449 29.008438 39.373633 L 28.34836 39.527989 L 27.363028 38.131817 C 27.132298 38.653038 27.200371 39.290795 27.312989 39.768067 L 26.813145 39.885508 C 26.813145 39.885508 26.930137 40.303616 27.156446 40.996212 C 27.45243 41.903592 27.835308 42.401216 28.113204 42.787911 C 28.667454 43.559091 28.963457 43.662911 28.963457 43.662911 L 29.530293 42.232012 L 30.194883 42.614962 L 30.475567 42.048673 C 33.764622 42.706631 34.06896 46.788807 32.434883 50.992813 C 23.70603 50.192558 16.869317 42.855482 16.869317 33.917872 C 16.869317 24.445843 24.547436 16.767188 34.020001 16.767188 z "
   transform="scale(9.142857)" />
</g></svg>
