<?xml version="1.0" encoding="UTF-8" standalone="no"?>
<!-- Uploaded to: SVG Repo, www.svgrepo.com, Generator: SVG Repo Mixer Tools -->

<svg
   fill="#ffffff"
   width="800px"
   height="800px"
   viewBox="0 0 56 56"
   version="1.1"
   id="svg1"
   sodipodi:docname="square-hunter.svg"
   xml:space="preserve"
   inkscape:version="1.4.2 (f4327f4, 2025-05-13)"
   xmlns:inkscape="http://www.inkscape.org/namespaces/inkscape"
   xmlns:sodipodi="http://sodipodi.sourceforge.net/DTD/sodipodi-0.dtd"
   xmlns="http://www.w3.org/2000/svg"
   xmlns:svg="http://www.w3.org/2000/svg"><defs
     id="defs1" /><sodipodi:namedview
     id="namedview1"
     pagecolor="#ffffff"
     bordercolor="#000000"
     borderopacity="0.25"
     inkscape:showpageshadow="2"
     inkscape:pageopacity="0.0"
     inkscape:pagecheckerboard="0"
     inkscape:deskcolor="#d1d1d1"
     inkscape:zoom="1.00875"
     inkscape:cx="400"
     inkscape:cy="400"
     inkscape:window-width="1920"
     inkscape:window-height="1009"
     inkscape:window-x="-8"
     inkscape:window-y="-8"
     inkscape:window-maximized="1"
     inkscape:current-layer="svg1" /><path
     id="path1"
     d="M 31.364102 2.8984375 C 23.82633 2.9178935 16.286927 2.8594312 8.75 2.9276953 C 6.6700195 3.0160136 4.3782428 3.8777171 3.3325195 5.8534766 C 2.0209682 8.2432273 2.5202248 11.017656 2.4180078 13.627305 C 2.4373658 20.94342 2.3791356 28.260836 2.4472656 35.576133 C 2.5237076 37.716655 3.5298056 40.077711 5.6095703 41.010293 C 7.1781658 41.787483 8.9397599 41.830864 10.644512 41.804629 C 10.661602 34.466655 10.610398 27.127465 10.670078 19.790313 C 10.77029 16.845389 11.915526 13.696962 14.521719 12.081289 C 17.074882 10.407126 20.242128 10.414542 23.180527 10.468691 L 41.88666 10.468691 C 41.961986 8.221272 41.487134 5.6173988 39.526621 4.2047852 C 37.164566 2.4846313 34.128313 2.9761702 31.364102 2.8984375 z M 46.571875 13.958027 C 45.246861 13.918764 43.89472 14.013773 42.582832 13.960898 C 35.210395 13.980348 27.836489 13.922043 20.464883 13.990293 C 18.306925 14.074973 15.924206 15.005004 14.938164 17.099414 C 13.743297 19.521797 14.249188 22.261701 14.136719 24.866406 C 14.154869 32.185872 14.100363 39.549632 14.164063 46.841758 C 14.247443 48.872382 15.109834 51.068424 16.93166 52.093809 C 19.383927 53.520913 22.322169 52.997377 25.059316 53.101563 C 32.454456 53.083443 39.89394 53.137879 47.261758 53.074219 C 49.426078 52.974909 51.691813 52.081143 52.726543 50.043027 C 53.975508 47.635145 53.475649 44.87991 53.581992 42.272617 C 53.562492 34.913016 53.621054 27.552138 53.552734 20.193359 C 53.474954 18.054981 52.470406 15.701513 50.398223 14.761113 C 49.194731 14.170818 47.896889 13.997291 46.571875 13.958027 z M 27.34375 17.277285 C 28.963211 17.269785 30.389591 18.743124 30.281973 20.364805 C 30.267743 22.091471 28.504951 23.526096 26.812871 23.151953 C 25.001192 22.922651 23.810668 20.737231 24.615938 19.09332 C 25.028959 17.990199 26.187485 17.290881 27.34375 17.277285 z M 36.508965 17.826074 C 36.544135 17.824097 36.579255 17.824031 36.614375 17.827031 C 37.051227 17.878886 37.481058 17.979956 37.903496 18.101152 C 39.425374 18.544458 40.860189 19.337348 41.976621 20.470898 C 42.018651 20.512729 42.066653 20.563882 42.103223 20.601602 C 42.381403 20.897098 42.638778 21.212311 42.870352 21.545645 C 42.903322 21.591972 42.940186 21.648336 42.968516 21.689336 C 43.588652 22.618868 44.010965 23.672453 44.253535 24.761133 C 44.269565 24.830017 44.285633 24.910343 44.299063 24.971953 C 44.427511 25.602265 44.497673 26.243304 44.529023 26.885469 C 45.396625 26.880229 46.264136 26.87522 47.131738 26.87002 C 47.043914 26.630987 46.956218 26.391971 46.868418 26.15293 C 46.861788 26.1267 46.824867 26.056559 46.874707 26.098379 C 47.468771 26.512871 48.110943 26.854851 48.773594 27.145781 C 48.870819 27.194659 48.985421 27.218566 49.064121 27.297676 C 49.046441 27.330456 49.003312 27.35061 48.969922 27.36959 C 48.259293 27.683937 47.566119 28.045786 46.931855 28.496836 C 46.913465 28.503996 46.858576 28.558629 46.862676 28.531289 C 46.949365 28.270307 47.04675 28.012752 47.13748 27.753086 C 46.270392 27.758176 45.403358 27.763398 44.53627 27.768398 C 44.53477 27.806885 44.533121 27.845309 44.531621 27.883789 C 44.529121 27.943902 44.526402 28.014706 44.524102 28.068086 C 44.482016 28.95541 44.336148 29.83956 44.068281 30.687207 C 44.048491 30.75187 44.023187 30.825452 44.004297 30.883672 C 43.774748 31.560746 43.467892 32.211568 43.090469 32.818789 C 43.054658 32.87686 43.012136 32.942953 42.978496 32.994883 C 42.927651 33.072092 42.873524 33.153654 42.823594 33.224844 C 42.74332 33.340668 42.65825 33.458138 42.56998 33.573477 C 42.201648 34.057443 41.781935 34.510709 41.336504 34.917969 C 40.819016 35.390219 40.256352 35.812405 39.661289 36.181934 C 39.050616 36.558996 38.408655 36.889339 37.734648 37.137871 C 37.557682 37.212391 37.353634 37.22924 37.171777 37.16166 C 36.901788 37.069152 36.702676 36.80578 36.687656 36.520723 C 36.663399 36.214463 36.855473 35.905756 37.142656 35.795156 C 37.48862 35.679888 37.824639 35.53611 38.150957 35.373516 C 39.515022 34.692259 40.733664 33.693431 41.602012 32.434336 C 42.245924 31.505135 42.683802 30.437337 42.895508 29.327676 C 42.995713 28.816536 43.045085 28.296794 43.063535 27.776602 C 41.401812 27.786512 39.740084 27.796159 38.078359 27.805859 C 38.012674 27.971359 37.934607 28.133632 37.823789 28.274121 C 37.535412 28.654673 37.069403 28.893593 36.591406 28.900293 C 34.563515 28.902036 32.535599 28.900479 30.507695 28.900977 L 30.507695 34.398574 C 31.57626 38.590203 32.645099 42.781674 33.71375 46.973281 C 33.78075 47.203468 33.811121 47.446604 33.777461 47.685176 C 33.712881 48.20216 33.378795 48.676451 32.911758 48.908262 C 32.49928 49.11896 31.994616 49.138725 31.568359 48.95625 C 31.117611 48.770879 30.763595 48.36841 30.639902 47.89668 C 29.655833 44.042097 28.673985 40.186956 27.690605 36.332188 L 26.93168 36.332188 C 25.882578 40.154473 24.833509 43.976775 23.784414 47.799063 C 23.728014 48.033646 23.632632 48.260939 23.483223 48.451895 C 23.174068 48.860922 22.659333 49.103644 22.146934 49.079844 C 21.671736 49.063915 21.210412 48.822786 20.927676 48.440273 C 20.640024 48.061814 20.535431 47.551911 20.653418 47.091133 C 21.816524 42.849566 22.981414 38.608509 24.145215 34.367129 L 24.145215 27.383945 C 22.947665 26.785419 21.750083 26.187055 20.55252 25.588555 C 20.339904 25.490802 20.139608 25.360669 19.982539 25.185508 C 19.629156 24.804841 19.481358 24.245899 19.602324 23.740527 C 19.707466 23.27808 20.027899 22.869722 20.455586 22.663184 C 20.882717 22.449925 21.405613 22.44251 21.837813 22.64582 C 23.166075 23.30749 24.492725 23.972531 25.82043 24.635352 L 28.877188 24.635352 C 29.325221 24.626037 29.772483 24.815634 30.075938 25.145586 C 30.226051 25.302393 30.333994 25.493593 30.416504 25.693145 L 35.889492 25.693145 C 36.145771 25.695345 36.402267 25.688673 36.658398 25.696973 C 37.13494 25.723635 37.588289 25.98399 37.858926 26.375918 C 37.977145 26.540561 38.053319 26.730041 38.111719 26.92293 C 39.742262 26.9133 41.372835 26.903545 43.003379 26.893945 C 43.048709 26.901025 43.078184 26.893499 43.060664 26.842129 C 43.01054 25.946409 42.866159 25.051804 42.577773 24.200586 C 42.253925 23.235262 41.739111 22.329734 41.044473 21.582832 C 40.297147 20.773379 39.352309 20.157104 38.328418 19.75668 C 37.756557 19.534442 37.160301 19.368169 36.550801 19.291699 C 36.392118 19.282757 36.232764 19.23554 36.107422 19.13502 C 35.877628 18.961676 35.77048 18.645945 35.84752 18.368574 C 35.92245 18.07091 36.202906 17.842404 36.508965 17.826074 z " /></svg>
