<?xml version="1.0" encoding="UTF-8" standalone="no"?>
<!-- Uploaded to: SVG Repo, www.svgrepo.com, Generator: SVG Repo Mixer Tools -->

<svg
   fill="#ffffff"
   height="800px"
   width="800px"
   version="1.1"
   id="Capa_1"
   viewBox="0 0 296.101 296.101"
   xml:space="preserve"
   sodipodi:docname="straight-skyjo.svg"
   inkscape:version="1.4.2 (f4327f4, 2025-05-13)"
   xmlns:inkscape="http://www.inkscape.org/namespaces/inkscape"
   xmlns:sodipodi="http://sodipodi.sourceforge.net/DTD/sodipodi-0.dtd"
   xmlns="http://www.w3.org/2000/svg"
   xmlns:svg="http://www.w3.org/2000/svg"><defs
   id="defs5"><inkscape:path-effect
     effect="fillet_chamfer"
     id="path-effect6"
     is_visible="true"
     lpeversion="1"
     nodesatellites_param="F,0,0,1,0,0,0,1 @ F,0,0,1,0,0,0,1 @ F,0,0,1,0,0,0,1 @ F,0,0,1,0,0,0,1 @ F,0,0,1,0,13.24085,0,1 @ F,0,0,1,0,0,0,1 @ F,0,0,1,0,0,0,1 @ F,0,0,1,0,0,0,1 @ F,0,0,1,0,0,0,1 @ F,0,0,1,0,0,0,1 | F,0,0,1,0,0,0,1 @ F,0,0,1,0,0,0,1 @ F,0,0,1,0,0,0,1 @ F,0,0,1,0,0,0,1 @ F,0,0,1,0,0,0,1 @ F,0,0,1,0,0,0,1 @ F,0,0,1,0,0,0,1 @ F,0,0,1,0,0,0,1 @ F,0,0,1,0,0,0,1 @ F,0,0,1,0,0,0,1 @ F,0,0,1,0,0,0,1 @ F,0,0,1,0,0,0,1"
     radius="0"
     unit="px"
     method="auto"
     mode="F"
     chamfer_steps="1"
     flexible="false"
     use_knot_distance="true"
     apply_no_radius="true"
     apply_with_radius="true"
     only_selected="false"
     hide_knots="false" /></defs><sodipodi:namedview
   id="namedview5"
   pagecolor="#ffffff"
   bordercolor="#000000"
   borderopacity="0.25"
   inkscape:showpageshadow="2"
   inkscape:pageopacity="0.0"
   inkscape:pagecheckerboard="0"
   inkscape:deskcolor="#d1d1d1"
   inkscape:zoom="0.71329397"
   inkscape:cx="366.60902"
   inkscape:cy="436.70634"
   inkscape:window-width="1920"
   inkscape:window-height="1009"
   inkscape:window-x="-8"
   inkscape:window-y="-8"
   inkscape:window-maximized="1"
   inkscape:current-layer="g5-7-2" />
<g
   id="g5-7-2"
   transform="matrix(-0.76978618,-0.24261471,0.24261471,-0.76978618,209.84873,355.23564)">
	
	
	
	
	
	
	
<path
   d="M 295.356,155.086 276.044,86.469 C 273.569,77.674 265.49,71.89 256.758,71.89 c -1.422,0 -2.86,0.161 -4.295,0.479 l 17.02,19.775 c 6.258,7.271 9.309,16.565 8.59,26.17 -0.719,9.604 -5.119,18.341 -12.391,24.6 l -71.297,61.365 87.137,-24.523 c 10.589,-2.98 16.813,-14.081 13.834,-24.67 z m -13.003,11.072 -2.269,-6.693 -3.671,0.766 c 0.322,0.218 0.627,0.522 0.915,0.914 0.288,0.394 0.527,0.849 0.721,1.368 0.59,1.638 0.54,3.069 -0.148,4.291 -0.691,1.222 -1.945,2.142 -3.765,2.758 -1.58,0.536 -3.091,0.484 -4.53,-0.153 -1.44,-0.637 -2.479,-1.896 -3.117,-3.776 -0.543,-1.604 -0.571,-3.173 -0.085,-4.651 0.485,-1.48 1.464,-2.93 2.935,-2.93 h 0.077 l 1.524,3.765 c -0.671,0.227 -1.132,0.604 -1.382,1.106 -0.251,0.502 -0.272,1.067 -0.063,1.685 0.24,0.709 0.659,1.13 1.257,1.259 0.598,0.127 1.277,0.064 2.041,-0.194 0.925,-0.314 1.598,-0.726 2.017,-1.236 0.42,-0.512 0.508,-1.126 0.265,-1.843 -0.178,-0.523 -0.432,-0.908 -0.764,-1.151 -0.333,-0.244 -0.689,-0.37 -1.069,-0.378 l -0.991,-3.57 9.763,-2.227 3.347,9.873 z"
   id="path1"
   transform="rotate(162.50663,155.42306,218.23438)" /><path
   id="path2"
   d="M 195.6748 41.622841 C 191.4048 41.622841 187.12586 42.99227 183.53586 45.74827 L 207.30769 56.472952 C 225.40169 64.635952 233.48159 85.996933 225.31859 104.09093 L 186.63576 189.83823 L 255.24363 130.7871 C 263.58063 123.6111 264.53071 110.91874 257.35471 102.58174 L 210.85541 48.552594 C 206.91441 43.974594 201.3078 41.622841 195.6748 41.622841 z M 237.29273 110.20921 L 241.2435 114.63559 L 238.99001 116.64725 L 235.04013 112.21998 L 237.29273 110.20921 z M 245.95022 112.98488 C 246.66748 113.40117 247.6009 113.71549 248.75096 113.92801 C 249.90636 114.13577 250.95654 114.04829 251.9019 113.66558 L 253.5338 115.49453 L 241.72985 126.02843 L 239.71908 123.77494 L 248.21087 116.19673 C 246.70632 116.06048 245.27142 115.59834 243.90541 114.81024 L 245.95022 112.98488 z "
   transform="rotate(162.50663,155.42306,218.23438)" /><path
   d="m 135.884,50.419 c 0.151,-0.002 0.301,-0.003 0.452,-0.003 19.603,0 35.75,15.947 35.996,35.55 l 1.178,94.059 37.224,-82.513 c 4.523,-10.026 0.02,-21.932 -10.006,-26.455 L 135.749,41.743 c -2.647,-1.194 -5.427,-1.76 -8.167,-1.76 -7.278,0 -14.268,3.995 -17.79,10.764 z m 64.508,38.96 c -0.321,0.737 -0.849,1.318 -1.579,1.742 -0.73,0.423 -1.556,0.642 -2.477,0.657 0.732,0.7 1.204,1.485 1.412,2.353 0.207,0.868 0.111,1.756 -0.285,2.666 -0.65,1.492 -1.732,2.417 -3.246,2.773 -1.513,0.357 -3.158,0.147 -4.934,-0.627 -1.529,-0.666 -2.692,-1.649 -3.487,-2.951 -0.796,-1.301 -0.843,-2.704 -0.142,-4.21 l 0.051,-0.057 3.693,1.609 c -0.227,0.521 -0.215,1.049 0.036,1.581 0.252,0.531 0.669,0.924 1.251,1.177 0.664,0.29 1.275,0.334 1.834,0.135 0.557,-0.201 0.96,-0.586 1.207,-1.153 0.345,-0.79 0.389,-1.456 0.133,-1.999 -0.257,-0.542 -0.761,-0.977 -1.515,-1.306 l -1.78,-0.775 1.225,-2.809 1.78,0.775 c 0.679,0.296 1.28,0.341 1.806,0.135 0.523,-0.206 0.928,-0.635 1.211,-1.283 0.225,-0.516 0.249,-1.019 0.073,-1.514 -0.175,-0.493 -0.576,-0.876 -1.203,-1.149 -0.492,-0.215 -0.986,-0.262 -1.483,-0.141 -0.495,0.12 -0.842,0.405 -1.037,0.854 l -3.67,-1.601 0.007,-0.078 c 0.521,-1.317 1.489,-2.146 2.908,-2.486 1.419,-0.341 2.888,-0.18 4.409,0.483 1.77,0.771 3.006,1.792 3.713,3.063 0.705,1.272 0.737,2.65 0.089,4.136 z"
   id="path3"
   transform="rotate(162.50663,155.42306,218.23438)" /><path
   d="M 64.803,67.31 C 54.184,67.443 45.561,75.947 45.099,86.431 L 68.59,75.117 c 4.897,-2.359 10.134,-3.555 15.563,-3.555 13.778,0 26.532,7.994 32.492,20.366 l 40.821,84.75 -1.134,-90.513 c -0.137,-10.914 -9.111,-19.75 -19.997,-19.75 -0.084,0 -0.167,10e-4 -0.252,0.002 z m 79.21,16.499 c 0.05,1.122 -0.196,2.127 -0.739,3.015 -0.542,0.887 -1.557,2.216 -3.041,3.984 l -2.289,2.681 0.041,0.071 6.927,-0.309 0.141,3.17 -12.427,0.554 -0.119,-2.683 5.439,-6.254 c 0.686,-0.861 1.186,-1.625 1.499,-2.291 0.313,-0.666 0.458,-1.238 0.437,-1.718 -0.03,-0.683 -0.228,-1.221 -0.591,-1.611 -0.365,-0.391 -0.892,-0.57 -1.582,-0.54 -0.618,0.027 -1.092,0.311 -1.423,0.853 -0.329,0.539 -0.478,1.216 -0.442,2.029 l -4.023,0.18 -0.028,-0.072 c -0.113,-1.641 0.361,-3.057 1.423,-4.249 1.063,-1.192 2.515,-1.828 4.352,-1.91 1.951,-0.087 3.494,0.324 4.631,1.234 1.135,0.911 1.74,2.2 1.814,3.866 z"
   id="path4"
   transform="rotate(162.50663,155.42306,218.23438)" /><path
   d="M 295.356,155.086 276.044,86.469 C 273.569,77.674 265.49,71.89 256.758,71.89 c -1.422,0 -2.86,0.161 -4.295,0.479 l 17.02,19.775 c 6.258,7.271 9.309,16.565 8.59,26.17 -0.719,9.604 -18.82973,28.10489 -26.10173,34.36389 l 26.48868,28.37091 3.41844,-1.10722 c 10.589,-2.98 16.45661,-14.26658 13.47761,-24.85558 z m -13.003,11.072 -2.269,-6.693 -3.671,0.766 c 0.322,0.218 0.627,0.522 0.915,0.914 0.288,0.394 0.527,0.849 0.721,1.368 0.59,1.638 0.54,3.069 -0.148,4.291 -0.691,1.222 -1.945,2.142 -3.765,2.758 -1.58,0.536 -3.091,0.484 -4.53,-0.153 -1.44,-0.637 -2.479,-1.896 -3.117,-3.776 -0.543,-1.604 -0.571,-3.173 -0.085,-4.651 0.485,-1.48 1.464,-2.93 2.935,-2.93 l 0.077,0 1.524,3.765 c -0.671,0.227 -1.132,0.604 -1.382,1.106 -0.251,0.502 -0.272,1.067 -0.063,1.685 0.24,0.709 0.659,1.13 1.257,1.259 0.598,0.127 1.277,0.064 2.041,-0.194 0.925,-0.314 1.598,-0.726 2.017,-1.236 0.42,-0.512 0.508,-1.126 0.265,-1.843 -0.178,-0.523 -0.432,-0.908 -0.764,-1.151 -0.333,-0.244 -0.689,-0.37 -1.069,-0.378 l -0.991,-3.57 9.763,-2.227 3.347,9.873 z"
   id="path1-1-3"
   sodipodi:nodetypes="ccscscccccccccccccccscccccccccccccc" /><path
   d="m 183.536,45.748 23.772,10.725 c 18.094,8.163 26.174,29.524 18.011,47.618 l -38.33196,78.7766 29.36064,-33.02441 a 21.43364,21.43364 163.3451 0 1 21.58429,-6.45708 l 3.98763,1.0723 13.3244,-13.67141 c 8.337,-7.176 9.287,-19.868 2.111,-28.205 l -46.5,-54.029 c -3.941,-4.578 -9.547,-6.93 -15.18,-6.93 -4.27,0 -8.549,1.369 -12.139,4.125 z m 66.671,66.246 0.027,-0.025 2.714,3.109 -8.175,7.136 1.18,1.352 -2.391,2.087 -1.18,-1.353 -2.824,2.465 -2.713,-3.108 2.824,-2.464 -4.528,-5.188 1.737,-1.84 z"
   id="path2-1-2"
   sodipodi:nodetypes="cccccccccscccccccccccccc"
   inkscape:path-effect="#path-effect6"
   inkscape:original-d="m 183.536,45.748 23.772,10.725 c 18.094,8.163 26.174,29.524 18.011,47.618 l -38.33196,78.7766 38.15832,-42.91991 16.77424,4.51072 13.3244,-13.67141 c 8.337,-7.176 9.287,-19.868 2.111,-28.205 l -46.5,-54.029 c -3.941,-4.578 -9.547,-6.93 -15.18,-6.93 -4.27,0 -8.549,1.369 -12.139,4.125 z m 66.671,66.246 0.027,-0.025 2.714,3.109 -8.175,7.136 1.18,1.352 -2.391,2.087 -1.18,-1.353 -2.824,2.465 -2.713,-3.108 2.824,-2.464 -4.528,-5.188 1.737,-1.84 z"
   transform="translate(2.6626782e-7)" /><polygon
   points="245.582,115.514 239.797,116.512 242.061,119.105 246.198,115.494 246.168,115.422 "
   id="polygon2-5-2"
   transform="translate(2.6626782e-7)" /><path
   d="m 135.884,50.419 c 0.151,-0.002 0.301,-0.003 0.452,-0.003 19.603,0 35.75,15.947 35.996,35.55 l 1.178,94.059 37.224,-82.513 c 4.523,-10.026 0.02,-21.932 -10.006,-26.455 L 135.749,41.743 c -2.647,-1.194 -5.427,-1.76 -8.167,-1.76 -7.278,0 -14.268,3.995 -17.79,10.764 z m 64.508,38.96 c -0.321,0.737 -0.849,1.318 -1.579,1.742 -0.73,0.423 -1.556,0.642 -2.477,0.657 0.732,0.7 1.204,1.485 1.412,2.353 0.207,0.868 0.111,1.756 -0.285,2.666 -0.65,1.492 -1.732,2.417 -3.246,2.773 -1.513,0.357 -3.158,0.147 -4.934,-0.627 -1.529,-0.666 -2.692,-1.649 -3.487,-2.951 -0.796,-1.301 -0.843,-2.704 -0.142,-4.21 l 0.051,-0.057 3.693,1.609 c -0.227,0.521 -0.215,1.049 0.036,1.581 0.252,0.531 0.669,0.924 1.251,1.177 0.664,0.29 1.275,0.334 1.834,0.135 0.557,-0.201 0.96,-0.586 1.207,-1.153 0.345,-0.79 0.389,-1.456 0.133,-1.999 -0.257,-0.542 -0.761,-0.977 -1.515,-1.306 l -1.78,-0.775 1.225,-2.809 1.78,0.775 c 0.679,0.296 1.28,0.341 1.806,0.135 0.523,-0.206 0.928,-0.635 1.211,-1.283 0.225,-0.516 0.249,-1.019 0.073,-1.514 -0.175,-0.493 -0.576,-0.876 -1.203,-1.149 -0.492,-0.215 -0.986,-0.262 -1.483,-0.141 -0.495,0.12 -0.842,0.405 -1.037,0.854 l -3.67,-1.601 0.007,-0.078 c 0.521,-1.317 1.489,-2.146 2.908,-2.486 1.419,-0.341 2.888,-0.18 4.409,0.483 1.77,0.771 3.006,1.792 3.713,3.063 0.705,1.272 0.737,2.65 0.089,4.136 z"
   id="path3-2-1"
   transform="translate(2.6626782e-7)" /><path
   id="path4-7-6"
   d="M 157.46605 176.67787 L 156.33224 86.164559 C 156.19524 75.250559 147.22089 66.414764 136.33489 66.414764 C 136.25089 66.414764 136.16803 66.41614 136.08303 66.41714 L 64.80333 67.309569 C 54.18433 67.442569 45.560799 75.947502 45.098799 86.431502 L 68.590112 75.117314 C 73.487112 72.758314 78.723594 71.561943 84.152594 71.561943 C 97.930594 71.561943 110.68543 79.55613 116.64543 91.92813 L 157.46605 176.67787 z M 142.32173 96.360407 C 141.8496 96.527884 141.32829 96.620933 140.7563 96.640613 C 139.23099 96.693093 138.01914 96.190018 137.12237 95.131102 C 136.05398 93.877344 135.46854 91.757264 135.36579 88.771101 C 135.2633 85.792099 135.70566 83.632862 136.69202 82.294069 C 137.50722 81.19059 138.67718 80.612831 140.20249 80.560352 C 141.73496 80.507626 142.99014 81.052271 143.96865 82.194409 C 144.9474 83.343708 145.48923 85.429427 145.59321 88.451396 C 145.69521 91.416076 145.25312 93.568103 144.26677 94.906895 C 143.75727 95.59657 143.10862 96.08128 142.32173 96.360407 z M 141.0622 94.07438 C 141.27009 94.011775 141.46126 93.903959 141.63521 93.750103 C 141.91377 93.511093 142.12117 93.088315 142.25801 92.481365 C 142.43883 91.693664 142.49732 90.375346 142.43375 88.527792 C 142.37018 86.680238 142.23385 85.412292 142.02377 84.724074 C 141.81393 84.043018 141.56517 83.593469 141.27801 83.373924 C 140.98368 83.154625 140.65404 83.050498 140.28883 83.063063 C 139.92362 83.075629 139.60174 83.201648 139.32318 83.440658 C 139.04487 83.686828 138.83704 84.113774 138.70019 84.720723 C 138.51913 85.501263 138.4608 86.81456 138.52437 88.662114 C 138.58794 90.509668 138.72411 91.774571 138.93395 92.455627 C 139.14404 93.143845 139.39626 93.597139 139.69059 93.816438 C 139.978 94.043144 140.30474 94.150467 140.66996 94.137901 C 140.80691 94.133189 140.93747 94.111943 141.0622 94.07438 z " /><path
   d="M 295.356,155.086 276.044,86.469 C 273.569,77.674 265.49,71.89 256.758,71.89 c -1.422,0 -2.86,0.161 -4.295,0.479 l 17.02,19.775 c 6.258,7.271 9.309,16.565 8.59,26.17 -0.719,9.604 -5.119,18.341 -12.391,24.6 l -71.297,61.365 87.137,-24.523 c 10.589,-2.98 16.813,-14.081 13.834,-24.67 z m -13.003,11.072 -2.269,-6.693 -3.671,0.766 c 0.322,0.218 0.627,0.522 0.915,0.914 0.288,0.394 0.527,0.849 0.721,1.368 0.59,1.638 0.54,3.069 -0.148,4.291 -0.691,1.222 -1.945,2.142 -3.765,2.758 -1.58,0.536 -3.091,0.484 -4.53,-0.153 -1.44,-0.637 -2.479,-1.896 -3.117,-3.776 -0.543,-1.604 -0.571,-3.173 -0.085,-4.651 0.485,-1.48 1.464,-2.93 2.935,-2.93 h 0.077 l 1.524,3.765 c -0.671,0.227 -1.132,0.604 -1.382,1.106 -0.251,0.502 -0.272,1.067 -0.063,1.685 0.24,0.709 0.659,1.13 1.257,1.259 0.598,0.127 1.277,0.064 2.041,-0.194 0.925,-0.314 1.598,-0.726 2.017,-1.236 0.42,-0.512 0.508,-1.126 0.265,-1.843 -0.178,-0.523 -0.432,-0.908 -0.764,-1.151 -0.333,-0.244 -0.689,-0.37 -1.069,-0.378 l -0.991,-3.57 9.763,-2.227 3.347,9.873 z"
   id="path1-1"
   transform="rotate(-99.037374,157.54247,218.07862)" /><path
   id="path5"
   d="M 84.153873 87.560555 C 81.251873 87.560555 78.311001 88.193016 75.534001 89.531016 L 11.310407 120.46636 C 1.4004078 125.23936 -2.8025781 137.25342 1.9704219 147.16342 L 48.99995 244.80872 C 52.43595 251.94172 59.624139 256.11916 67.077139 256.11916 C 69.980139 256.11916 72.919905 255.4867 75.697905 254.1487 L 139.92329 223.21336 C 149.83329 218.44036 154.03628 206.4263 149.26328 196.5163 L 102.23106 98.871001 C 98.795062 91.738001 91.606873 87.560555 84.153873 87.560555 z M 85.2842 100.26376 C 85.929649 100.24254 86.534586 100.34872 87.098816 100.58262 C 88.227275 101.0504 89.013049 101.86691 89.456204 103.03226 C 89.708343 103.6953 89.828149 104.37365 89.816261 105.0681 C 89.808523 105.75331 89.672153 106.52288 89.406046 107.37533 C 89.230026 107.94055 88.852171 108.80082 88.272136 109.95664 C 87.692101 111.11245 87.332092 111.87025 87.19286 112.22983 C 87.060326 112.58687 86.968453 112.92065 86.917892 113.23118 L 92.523853 111.0995 L 93.520727 113.72111 L 83.62543 117.48469 C 83.355653 116.45273 83.321033 115.39199 83.520638 114.30419 C 83.717696 113.20969 84.327659 111.62854 85.350479 109.56075 C 86.172188 107.89141 86.646155 106.79168 86.77369 106.26023 C 86.940561 105.52984 86.915833 104.87965 86.69935 104.31037 C 86.459944 103.68081 86.106002 103.26411 85.637092 103.05913 C 85.172333 102.8449 84.64246 102.85037 84.046393 103.07704 C 83.457023 103.30116 83.055005 103.65727 82.841724 104.14467 C 82.628444 104.63207 82.651901 105.29785 82.911586 106.142 L 79.991721 106.93019 C 79.568283 105.31272 79.670321 103.99741 80.297143 102.98479 C 80.923965 101.97216 81.899882 101.21408 83.225964 100.7098 C 83.952631 100.43346 84.638752 100.28498 85.2842 100.26376 z M 80.395666 110.98575 L 81.468671 113.80799 L 75.923615 115.91728 L 74.849714 113.09415 L 80.395666 110.98575 z M 77.285919 148.06714 C 78.17113 148.1087 79.030555 148.24044 79.863641 148.46213 C 83.187269 149.33071 85.672349 151.48396 87.319148 154.92256 C 88.059773 156.46902 88.552476 158.01154 88.796994 159.54956 C 89.050993 161.06067 89.083682 162.59997 88.894621 164.1667 C 88.725289 165.63453 88.419827 167.14445 87.978357 168.69787 C 87.555081 170.24258 86.979079 172.00603 86.250621 173.98766 C 85.21879 176.83031 84.097077 179.64915 82.885611 182.44363 C 81.665432 185.21991 80.520894 187.80293 79.451635 190.19381 L 101.31121 179.72529 L 103.54589 184.3917 L 76.037363 197.56602 L 73.305588 191.86243 L 76.684033 184.2054 C 77.828368 181.64437 78.84019 179.15755 79.720334 176.74541 C 81.592853 171.68845 82.700345 167.85937 83.042352 165.25762 C 83.375646 162.63768 82.989047 160.17272 81.882467 157.86212 C 80.871733 155.75166 79.383061 154.44004 77.415791 153.92837 C 75.458001 153.38979 73.232935 153.7181 70.740406 154.91181 C 69.084785 155.70471 67.431713 156.85342 65.78201 158.35922 C 64.132307 159.86502 62.676341 161.65866 61.413856 163.73947 L 61.140678 163.87024 L 58.396364 158.13888 C 59.383149 156.88347 60.823777 155.47787 62.717943 153.9221 C 64.630303 152.35761 66.596397 151.09165 68.615891 150.12448 C 71.740649 148.62799 74.630288 147.94246 77.285919 148.06714 z M 57.770294 181.42078 L 60.135743 186.36036 L 43.106481 194.51539 L 40.741033 189.5758 L 57.770294 181.42078 z "
   transform="rotate(162.50663,155.42306,218.23438)" /><path
   d="m 183.536,45.748 23.772,10.725 c 18.094,8.163 26.174,29.524 18.011,47.618 l -38.683,85.747 68.608,-59.051 c 8.337,-7.176 9.287,-19.868 2.111,-28.205 l -46.5,-54.029 c -3.941,-4.578 -9.547,-6.93 -15.18,-6.93 -4.27,0 -8.549,1.369 -12.139,4.125 z m 66.671,66.246 0.027,-0.025 2.714,3.109 -8.175,7.136 1.18,1.352 -2.391,2.087 -1.18,-1.353 -2.824,2.465 -2.713,-3.108 2.824,-2.464 -4.528,-5.188 1.737,-1.84 z"
   id="path2-1"
   transform="rotate(-99.037374,157.54247,218.07862)" /><polygon
   points="246.198,115.494 246.168,115.422 245.582,115.514 239.797,116.512 242.061,119.105 "
   id="polygon2-5"
   transform="rotate(-99.037374,157.54247,218.07862)" /><path
   d="m 135.884,50.419 c 0.151,-0.002 0.301,-0.003 0.452,-0.003 19.603,0 35.75,15.947 35.996,35.55 l 1.178,94.059 37.224,-82.513 c 4.523,-10.026 0.02,-21.932 -10.006,-26.455 L 135.749,41.743 c -2.647,-1.194 -5.427,-1.76 -8.167,-1.76 -7.278,0 -14.268,3.995 -17.79,10.764 z m 64.508,38.96 c -0.321,0.737 -0.849,1.318 -1.579,1.742 -0.73,0.423 -1.556,0.642 -2.477,0.657 0.732,0.7 1.204,1.485 1.412,2.353 0.207,0.868 0.111,1.756 -0.285,2.666 -0.65,1.492 -1.732,2.417 -3.246,2.773 -1.513,0.357 -3.158,0.147 -4.934,-0.627 -1.529,-0.666 -2.692,-1.649 -3.487,-2.951 -0.796,-1.301 -0.843,-2.704 -0.142,-4.21 l 0.051,-0.057 3.693,1.609 c -0.227,0.521 -0.215,1.049 0.036,1.581 0.252,0.531 0.669,0.924 1.251,1.177 0.664,0.29 1.275,0.334 1.834,0.135 0.557,-0.201 0.96,-0.586 1.207,-1.153 0.345,-0.79 0.389,-1.456 0.133,-1.999 -0.257,-0.542 -0.761,-0.977 -1.515,-1.306 l -1.78,-0.775 1.225,-2.809 1.78,0.775 c 0.679,0.296 1.28,0.341 1.806,0.135 0.523,-0.206 0.928,-0.635 1.211,-1.283 0.225,-0.516 0.249,-1.019 0.073,-1.514 -0.175,-0.493 -0.576,-0.876 -1.203,-1.149 -0.492,-0.215 -0.986,-0.262 -1.483,-0.141 -0.495,0.12 -0.842,0.405 -1.037,0.854 l -3.67,-1.601 0.007,-0.078 c 0.521,-1.317 1.489,-2.146 2.908,-2.486 1.419,-0.341 2.888,-0.18 4.409,0.483 1.77,0.771 3.006,1.792 3.713,3.063 0.705,1.272 0.737,2.65 0.089,4.136 z"
   id="path3-2"
   transform="rotate(-99.037374,157.54247,218.07862)" /><path
   id="path4-7"
   d="M 45.098779 86.430611 L 68.590006 75.117396 C 73.487006 72.758396 78.724251 71.562221 84.153251 71.562221 C 97.931251 71.562221 110.6852 79.55553 116.6452 91.92753 L 157.46572 176.67772 L 156.33173 86.165133 C 156.19473 75.251133 147.22091 66.415166 136.33491 66.415166 C 136.25091 66.415166 136.16849 66.416229 136.08349 66.417229 L 64.803315 67.309834 C 54.184315 67.442834 45.560779 75.946611 45.098779 86.430611 z M 123.65328 87.258203 L 123.81606 84.522007 C 124.61819 84.311389 125.5026 83.876211 126.4679 83.215922 C 127.43363 82.548481 128.11631 81.745831 128.51674 80.807835 L 130.96327 80.953015 L 130.02241 96.746402 L 127.00744 96.566202 L 127.68446 85.204658 C 126.52159 86.169008 125.17758 86.853738 123.65328 87.258203 z M 135.10478 93.084147 C 134.93307 92.020544 134.89209 90.734217 134.982 89.225015 C 135.15843 86.263832 135.79982 84.162998 136.90736 82.922587 C 137.82244 81.900406 139.04167 81.43413 140.56518 81.5249 C 142.08869 81.615669 143.24764 82.23046 144.04118 83.368796 C 144.9873 84.717206 145.37128 86.882992 145.19357 89.865633 C 145.0163 92.841122 144.37435 94.948685 143.26682 96.189096 C 142.35174 97.211277 141.1325 97.677553 139.60899 97.586784 C 138.07833 97.495589 136.87924 96.834868 136.01213 95.606014 C 135.5788 94.98801 135.27649 94.147749 135.10478 93.084147 z M 138.18577 93.269924 C 138.33083 93.967655 138.53651 94.439599 138.80183 94.685103 C 139.0743 94.931032 139.39225 95.064667 139.75703 95.086401 C 140.12182 95.108134 140.45445 95.013264 140.75419 94.801426 C 141.05436 94.582435 141.30121 94.177207 141.49437 93.585762 C 141.74781 92.825638 141.9289 91.52261 142.03885 89.677235 C 142.14879 87.83186 142.13206 86.560525 141.987 85.862794 C 141.84237 85.157911 141.6336 84.682328 141.36113 84.436398 C 141.09624 84.183742 140.78104 84.047148 140.41625 84.025415 C 140.05147 84.003681 139.71907 84.102294 139.41891 84.321284 C 139.11917 84.533122 138.87296 84.934477 138.67981 85.525921 C 138.42593 86.293198 138.24407 87.599214 138.13412 89.444589 C 138.02417 91.289964 138.04114 92.565041 138.18577 93.269924 z "
   transform="rotate(-99.037374,157.54247,218.07862)" /></g>
</svg>
