<?xml version="1.0" encoding="UTF-8" standalone="no"?>
<!-- Uploaded to: SVG Repo, www.svgrepo.com, Generator: SVG Repo Mixer Tools -->

<svg
   fill="#000000"
   width="800px"
   height="800px"
   viewBox="0 0 52 52"
   enable-background="new 0 0 52 52"
   xml:space="preserve"
   version="1.1"
   id="svg6"
   sodipodi:docname="tile-card-list-svgrepo-com.svg"
   xmlns:inkscape="http://www.inkscape.org/namespaces/inkscape"
   xmlns:sodipodi="http://sodipodi.sourceforge.net/DTD/sodipodi-0.dtd"
   xmlns="http://www.w3.org/2000/svg"
   xmlns:svg="http://www.w3.org/2000/svg"><defs
   id="defs6" /><sodipodi:namedview
   id="namedview6"
   pagecolor="#ffffff"
   bordercolor="#000000"
   borderopacity="0.25"
   inkscape:showpageshadow="2"
   inkscape:pageopacity="0.0"
   inkscape:pagecheckerboard="0"
   inkscape:deskcolor="#d1d1d1" />
<path
   d="M 11.316999,17.33829 H 5.0452856 C 4.4877999,17.33829 4,17.82609 4,18.383576 v 11.846569 c 0,0.557486 0.4877999,1.045286 1.0452856,1.045286 h 6.2717134 c 0.557486,0 1.045286,-0.4878 1.045286,-1.045286 V 18.383576 c 0,-0.557486 -0.4878,-1.045286 -1.045286,-1.045286 z"
   id="path1"
   style="stroke-width:0.696857" />
<path
   d="m 22.466712,17.33829 h -6.271714 c -0.557485,0 -1.045285,0.4878 -1.045285,1.045286 v 11.846569 c 0,0.557486 0.4878,1.045286 1.045285,1.045286 h 6.271714 c 0.557485,0 1.045285,-0.4878 1.045285,-1.045286 V 18.383576 c 0,-0.557486 -0.4878,-1.045286 -1.045285,-1.045286 z"
   id="path2"
   style="stroke-width:0.696857" />
<path
   d="m 33.616424,17.33829 h -6.271713 c -0.557486,0 -1.045286,0.4878 -1.045286,1.045286 v 11.846569 c 0,0.557486 0.4878,1.045286 1.045286,1.045286 h 6.271713 c 0.557486,0 1.045286,-0.4878 1.045286,-1.045286 V 18.383576 c 0,-0.557486 -0.4878,-1.045286 -1.045286,-1.045286 z"
   id="path3"
   style="stroke-width:0.696857" />
<path
   d="M 11.316999,34.062859 H 5.0452856 C 4.4877999,34.062859 4,34.550659 4,35.108145 V 46.954714 C 4,47.5122 4.4877999,48 5.0452856,48 h 6.2717134 c 0.557486,0 1.045286,-0.4878 1.045286,-1.045286 V 35.108145 c 0,-0.557486 -0.4878,-1.045286 -1.045286,-1.045286 z"
   id="path4"
   style="stroke-width:0.696857" />
<path
   d="m 22.466712,34.062859 h -6.271714 c -0.557485,0 -1.045285,0.4878 -1.045285,1.045286 V 46.954714 C 15.149713,47.5122 15.637513,48 16.194998,48 h 6.271714 c 0.557485,0 1.045285,-0.4878 1.045285,-1.045286 V 35.108145 c 0,-0.557486 -0.4878,-1.045286 -1.045285,-1.045286 z"
   id="path5"
   style="stroke-width:0.696857" />
<path
   d="m 33.616424,34.062859 h -6.271713 c -0.557486,0 -1.045286,0.4878 -1.045286,1.045286 V 46.954714 C 26.299425,47.5122 26.787225,48 27.344711,48 h 6.271713 c 0.557486,0 1.045286,-0.4878 1.045286,-1.045286 V 35.108145 c 0,-0.557486 -0.4878,-1.045286 -1.045286,-1.045286 z"
   id="path6"
   style="stroke-width:0.696857" />
<path
   d="m -11.143001,-1.95 h -6.271713 C -17.9722,-1.95 -18.46,-1.4622 -18.46,-0.904714 v 11.846569 c 0,0.557486 0.4878,1.045286 1.045286,1.045286 h 6.271713 c 0.557486,0 1.045286,-0.4878 1.045286,-1.045286 V -0.904714 c 0,-0.557486 -0.4878,-1.045286 -1.045286,-1.045286 z"
   id="path1-5"
   style="stroke-width:0.696857" /><path
   d="m 0.006712,-1.95 h -6.271714 c -0.557485,0 -1.045285,0.4878 -1.045285,1.045286 v 11.846569 c 0,0.557486 0.4878,1.045286 1.045285,1.045286 h 6.271714 c 0.557485,0 1.045285,-0.4878 1.045285,-1.045286 V -0.904714 C 1.051997,-1.4622 0.564197,-1.95 0.006712,-1.95 Z"
   id="path2-1"
   style="stroke-width:0.696857" /><path
   d="M 11.156424,-1.95 H 4.884711 c -0.557486,0 -1.045286,0.4878 -1.045286,1.045286 v 11.846569 c 0,0.557486 0.4878,1.045286 1.045286,1.045286 h 6.271713 c 0.557486,0 1.045286,-0.4878 1.045286,-1.045286 V -0.904714 C 12.20171,-1.4622 11.71391,-1.95 11.156424,-1.95 Z"
   id="path3-7"
   style="stroke-width:0.696857" /><path
   d="m -11.143001,14.774569 h -6.271713 c -0.557486,0 -1.045286,0.4878 -1.045286,1.045286 v 11.846569 c 0,0.557486 0.4878,1.045286 1.045286,1.045286 h 6.271713 c 0.557486,0 1.045286,-0.4878 1.045286,-1.045286 V 15.819855 c 0,-0.557486 -0.4878,-1.045286 -1.045286,-1.045286 z"
   id="path4-1"
   style="stroke-width:0.696857" /><path
   d="m 0.006712,14.774569 h -6.271714 c -0.557485,0 -1.045285,0.4878 -1.045285,1.045286 v 11.846569 c 0,0.557486 0.4878,1.045286 1.045285,1.045286 h 6.271714 c 0.557485,0 1.045285,-0.4878 1.045285,-1.045286 V 15.819855 c 0,-0.557486 -0.4878,-1.045286 -1.045285,-1.045286 z"
   id="path5-1"
   style="stroke-width:0.696857" /><path
   d="M 11.156424,14.774569 H 4.884711 c -0.557486,0 -1.045286,0.4878 -1.045286,1.045286 v 11.846569 c 0,0.557486 0.4878,1.045286 1.045286,1.045286 h 6.271713 c 0.557486,0 1.045286,-0.4878 1.045286,-1.045286 V 15.819855 c 0,-0.557486 -0.4878,-1.045286 -1.045286,-1.045286 z"
   id="path6-5"
   style="stroke-width:0.696857" /></svg>
