<?xml version="1.0" encoding="UTF-8" standalone="no"?>
<!-- Uploaded to: SVG Repo, www.svgrepo.com, Generator: SVG Repo Mixer Tools -->

<svg
   fill="#ffffff"
   width="800px"
   height="800px"
   viewBox="0 0 52 52"
   enable-background="new 0 0 52 52"
   xml:space="preserve"
   version="1.1"
   id="svg6"
   sodipodi:docname="tile-card-list-svgrepo-com.svg"
   inkscape:version="1.4.2 (f4327f4, 2025-05-13)"
   xmlns:inkscape="http://www.inkscape.org/namespaces/inkscape"
   xmlns:sodipodi="http://sodipodi.sourceforge.net/DTD/sodipodi-0.dtd"
   xmlns="http://www.w3.org/2000/svg"
   xmlns:svg="http://www.w3.org/2000/svg"><defs
   id="defs6" /><sodipodi:namedview
   id="namedview6"
   pagecolor="#ffffff"
   bordercolor="#000000"
   borderopacity="0.25"
   inkscape:showpageshadow="2"
   inkscape:pageopacity="0.0"
   inkscape:pagecheckerboard="0"
   inkscape:deskcolor="#d1d1d1"
   inkscape:zoom="0.504375"
   inkscape:cx="665.17968"
   inkscape:cy="185.37794"
   inkscape:window-width="1920"
   inkscape:window-height="1009"
   inkscape:window-x="-8"
   inkscape:window-y="-8"
   inkscape:window-maximized="1"
   inkscape:current-layer="svg6" />
<path
   d="M 13.663221,20.036029 H 7.9433173 C 7.4348814,20.036029 6.99,20.480909 6.99,20.989345 v 10.804262 c 0,0.508436 0.4448814,0.953317 0.9533173,0.953317 h 5.7199037 c 0.508435,0 0.953317,-0.444881 0.953317,-0.953317 V 20.989345 c 0,-0.508436 -0.444882,-0.953316 -0.953317,-0.953316 z"
   id="path1"
   style="stroke-width:0.635544" />
<path
   d="m 23.831937,20.036029 h -5.719902 c -0.508437,0 -0.953317,0.44488 -0.953317,0.953316 v 10.804262 c 0,0.508436 0.44488,0.953317 0.953317,0.953317 h 5.719902 c 0.508436,0 0.953319,-0.444881 0.953319,-0.953317 V 20.989345 c 0,-0.508436 -0.444883,-0.953316 -0.953319,-0.953316 z"
   id="path2"
   style="stroke-width:0.635544" />
<path
   d="m 34.000655,20.036029 h -5.719903 c -0.508436,0 -0.953317,0.44488 -0.953317,0.953316 v 10.804262 c 0,0.508436 0.444881,0.953317 0.953317,0.953317 h 5.719903 c 0.508436,0 0.953316,-0.444881 0.953316,-0.953317 V 20.989345 c 0,-0.508436 -0.44488,-0.953316 -0.953316,-0.953316 z"
   id="path3"
   style="stroke-width:0.635544" />
<path
   d="M 13.663221,35.289104 H 7.9433173 C 7.4348814,35.289104 6.99,35.733985 6.99,36.242421 V 47.046683 C 6.99,47.555119 7.4348814,48 7.9433173,48 h 5.7199037 c 0.508435,0 0.953317,-0.444881 0.953317,-0.953317 V 36.242421 c 0,-0.508436 -0.444882,-0.953317 -0.953317,-0.953317 z"
   id="path4"
   style="stroke-width:0.635544" />
<path
   d="m 23.831937,35.289104 h -5.719902 c -0.508437,0 -0.953317,0.444881 -0.953317,0.953317 v 10.804262 c 0,0.508436 0.44488,0.953317 0.953317,0.953317 h 5.719902 c 0.508436,0 0.953319,-0.444881 0.953319,-0.953317 V 36.242421 c 0,-0.508436 -0.444883,-0.953317 -0.953319,-0.953317 z"
   id="path5"
   style="stroke-width:0.635544" />
<path
   d="m 34.000655,35.289104 h -5.719903 c -0.508436,0 -0.953317,0.444881 -0.953317,0.953317 V 47.046683 C 27.327435,47.555119 27.772316,48 28.280752,48 h 5.719903 c 0.508436,0 0.953316,-0.444881 0.953316,-0.953317 V 36.242421 c 0,-0.508436 -0.44488,-0.953317 -0.953316,-0.953317 z"
   id="path6"
   style="stroke-width:0.635544" /><path
   d="m 44.168695,20.014917 h -5.719904 c -0.508435,0 -0.953316,0.44488 -0.953316,0.953317 v 10.804262 c 0,0.508436 0.444881,0.953317 0.953316,0.953317 h 5.719904 c 0.508436,0 0.953316,-0.444881 0.953316,-0.953317 V 20.968234 c 0,-0.508437 -0.44488,-0.953317 -0.953316,-0.953317 z"
   id="path3-8"
   style="stroke-width:0.635544" /><path
   d="m 44.168695,35.267992 h -5.719904 c -0.508435,0 -0.953316,0.444881 -0.953316,0.953318 v 10.804262 c 0,0.508436 0.444881,0.953317 0.953316,0.953317 h 5.719904 c 0.508436,0 0.953316,-0.444881 0.953316,-0.953317 V 36.22131 c 0,-0.508437 -0.44488,-0.953318 -0.953316,-0.953318 z"
   id="path6-4"
   style="stroke-width:0.635544" /><path
   d="M 13.678703,4.7756703 H 7.9587992 c -0.5084353,0 -0.9533171,0.4448808 -0.9533171,0.953317 V 16.53325 c 0,0.508435 0.4448818,0.953316 0.9533171,0.953316 h 5.7199038 c 0.508435,0 0.953318,-0.444881 0.953318,-0.953316 V 5.7289873 c 0,-0.5084362 -0.444883,-0.953317 -0.953318,-0.953317 z"
   id="path1-5"
   style="stroke-width:0.635544" /><path
   d="m 23.847419,4.7756703 h -5.719902 c -0.508437,0 -0.953317,0.4448808 -0.953317,0.953317 V 16.53325 c 0,0.508435 0.44488,0.953316 0.953317,0.953316 h 5.719902 c 0.508436,0 0.953318,-0.444881 0.953318,-0.953316 V 5.7289873 c 0,-0.5084362 -0.444882,-0.953317 -0.953318,-0.953317 z"
   id="path2-1"
   style="stroke-width:0.635544" /><path
   d="m 34.016137,4.7756703 h -5.719903 c -0.508436,0 -0.953318,0.4448808 -0.953318,0.953317 V 16.53325 c 0,0.508435 0.444882,0.953316 0.953318,0.953316 h 5.719903 c 0.508436,0 0.953317,-0.444881 0.953317,-0.953316 V 5.7289873 c 0,-0.5084362 -0.444881,-0.953317 -0.953317,-0.953317 z"
   id="path3-7"
   style="stroke-width:0.635544" /><path
   d="m 44.184177,4.754559 h -5.719903 c -0.508436,0 -0.953318,0.4448808 -0.953318,0.953317 v 10.804262 c 0,0.508436 0.444882,0.953317 0.953318,0.953317 h 5.719903 c 0.508436,0 0.953316,-0.444881 0.953316,-0.953317 V 5.707876 c 0,-0.5084362 -0.44488,-0.953317 -0.953316,-0.953317 z"
   id="path3-8-2"
   style="stroke-width:0.635544" />
</svg>
