<?xml version="1.0" encoding="UTF-8" standalone="no"?>
<!-- Uploaded to: SVG Repo, www.svgrepo.com, Generator: SVG Repo Mixer Tools -->

<svg
   height="800px"
   width="800px"
   version="1.1"
   id="_x32_"
   viewBox="0 0 512 512"
   xml:space="preserve"
   sodipodi:docname="trump-skyjo.svg"
   inkscape:version="1.4.2 (f4327f4, 2025-05-13)"
   xmlns:inkscape="http://www.inkscape.org/namespaces/inkscape"
   xmlns:sodipodi="http://sodipodi.sourceforge.net/DTD/sodipodi-0.dtd"
   xmlns="http://www.w3.org/2000/svg"
   xmlns:svg="http://www.w3.org/2000/svg"><defs
   id="defs2" /><sodipodi:namedview
   id="namedview2"
   pagecolor="#000000"
   bordercolor="#000000"
   borderopacity="0.25"
   inkscape:showpageshadow="2"
   inkscape:pageopacity="0.0"
   inkscape:pagecheckerboard="0"
   inkscape:deskcolor="#d1d1d1"
   inkscape:zoom="0.504375"
   inkscape:cx="423.29616"
   inkscape:cy="413.3829"
   inkscape:window-width="1920"
   inkscape:window-height="1009"
   inkscape:window-x="-8"
   inkscape:window-y="-8"
   inkscape:window-maximized="1"
   inkscape:current-layer="g2" />
<style
   type="text/css"
   id="style1">
	.st0{fill:#ffffff;}
</style>
<g
   id="g2">
	<path
   id="path1"
   class="st0"
   d="M 44.75875 0 C 27.91175 0 14.25375 13.658 14.25375 30.505 L 14.25375 417.87625 C 14.25375 434.72325 27.91175 448.38 44.75875 448.38 L 294.0325 448.38 C 310.8785 448.38 324.53625 434.72225 324.53625 417.87625 L 324.53625 30.505 C 324.53625 13.658 310.8795 0 294.0325 0 L 44.75875 0 z M 57.74625 17.20625 C 60.473464 17.20625 62.61055 18.208287 64.15875 20.2125 C 65.70695 22.198657 66.48125 24.898671 66.48125 28.31125 C 66.48125 29.846008 66.350753 31.281358 66.08875 32.6175 C 65.838656 33.935586 65.462688 35.189556 64.9625 36.38125 C 64.49804 37.50072 63.951189 38.602892 63.32 39.68625 C 62.70072 40.769608 61.944442 41.969414 61.05125 43.2875 C 59.776962 45.183377 58.460153 47.026209 57.1025 48.81375 C 55.744847 50.583235 54.476514 52.225798 53.2975 53.7425 L 67.60625 53.7425 L 67.60625 58.37375 L 49.6 58.37375 L 49.6 52.71375 L 53.35125 47.83875 C 54.613629 46.213712 55.78751 44.596982 56.87125 42.99 C 59.157823 39.631589 60.723194 36.968101 61.56875 35 C 62.414306 33.013843 62.8375 30.874359 62.8375 28.58125 C 62.8375 26.486757 62.378261 24.852388 61.46125 23.67875 C 60.556148 22.487056 59.287815 21.89125 57.65625 21.89125 C 56.57251 21.89125 55.399879 22.180959 54.1375 22.75875 C 52.875121 23.336541 51.642833 24.220806 50.44 25.4125 L 50.26125 25.4125 L 50.26125 19.725 C 51.106806 19.093041 52.232211 18.514873 53.6375 17.99125 C 55.054699 17.467627 56.424325 17.20625 57.74625 17.20625 z M 32.84375 38.2775 L 43.99125 38.2775 L 43.99125 43.18 L 32.84375 43.18 L 32.84375 38.2775 z M 193.38 144.09125 C 205.91258 144.09125 215.73668 147.93496 222.85125 155.6225 C 229.96582 163.24078 233.5225 173.59541 233.5225 186.685 C 233.5225 192.57185 232.92025 198.07748 231.71625 203.2025 C 230.56697 208.25827 228.84355 213.07153 226.545 217.6425 C 224.41063 221.93644 221.89305 226.16083 218.9925 230.31625 C 216.14667 234.47167 212.67081 239.07798 208.56625 244.13375 C 202.71041 251.40574 196.66393 258.4698 190.425 265.32625 C 184.18607 272.11344 178.35677 278.41491 172.93875 284.2325 L 238.69375 284.2325 L 238.69375 301.9975 L 155.94625 301.9975 L 155.94625 280.285 L 173.185 261.58625 C 178.98611 255.35311 184.3773 249.15388 189.3575 242.99 C 199.86517 230.10818 207.06185 219.89277 210.9475 212.34375 C 214.83315 204.72547 216.77625 196.5194 216.77625 187.72375 C 216.77625 179.68993 214.66901 173.42171 210.455 168.92 C 206.29571 164.34903 200.46766 162.06375 192.97 162.06375 C 187.9898 162.06375 182.59861 163.17127 176.7975 165.3875 C 170.99639 167.60373 165.33247 170.99778 159.805 175.56875 L 158.98375 175.56875 L 158.98375 153.7525 C 162.8694 151.3285 168.04091 149.11221 174.49875 147.10375 C 181.01132 145.09529 187.30525 144.09125 193.38 144.09125 z M 78.945 224.915 L 130.17 224.915 L 130.17 243.7175 L 78.945 243.7175 L 78.945 224.915 z " />
	<path
   class="st0"
   d="M 477.685,88.816 339.737,38.612 V 417.89 c 0,25.177 -20.528,45.704 -45.704,45.704 h -97.66 l 127.956,46.54 c 15.788,5.796 33.336,-2.362 39.058,-18.233 l 132.532,-364.02 c 5.721,-15.796 -2.438,-33.268 -18.234,-39.065 z"
   id="path2"
   sodipodi:nodetypes="ccssccccc" />
</g>
</svg>
